<svg width="25" height="20" viewBox="0 0 25 20" fill="none" xmlns="http://www.w3.org/2000/svg">
<path d="M20.538 2.2075C19.0167 1.48875 17.386 0.9575 15.6807 0.655417C15.6655 0.652363 15.6498 0.654331 15.6358 0.661049C15.6217 0.667768 15.6099 0.678905 15.6022 0.692917C15.3934 1.07729 15.1607 1.57833 14.9976 1.97417C13.1891 1.69108 11.3504 1.69108 9.54181 1.97417C9.36019 1.53548 9.15537 1.10773 8.92832 0.692917C8.92062 0.678732 8.90898 0.667344 8.89495 0.660271C8.88091 0.653199 8.86515 0.650778 8.84977 0.653333C7.14551 0.955417 5.51483 1.48667 3.99252 2.20646C3.97943 2.21221 3.96832 2.22203 3.96071 2.23458C0.866387 7.00021 0.0182335 11.6481 0.434853 16.2377C0.436012 16.2489 0.439343 16.2598 0.444642 16.2697C0.449941 16.2795 0.457098 16.2881 0.465677 16.295C2.27175 17.6725 4.28618 18.7219 6.42463 19.3992C6.43953 19.404 6.45548 19.404 6.47038 19.3991C6.48528 19.3943 6.49844 19.3849 6.50815 19.3721C6.96752 18.7262 7.37718 18.044 7.72718 17.3273C7.74806 17.2856 7.72818 17.2356 7.68642 17.219C7.04409 16.9655 6.42173 16.6597 5.82505 16.3044C5.81433 16.298 5.8053 16.2889 5.79876 16.2779C5.79222 16.2669 5.78839 16.2544 5.7876 16.2415C5.78681 16.2286 5.78909 16.2157 5.79424 16.2039C5.79939 16.1922 5.80724 16.182 5.8171 16.1742C5.94238 16.0773 6.06767 15.9763 6.18698 15.8752C6.19772 15.8661 6.21066 15.8603 6.22435 15.8585C6.23805 15.8567 6.25196 15.8588 6.26454 15.8648C10.1692 17.7023 14.3981 17.7023 18.257 15.8648C18.2696 15.8585 18.2837 15.856 18.2976 15.8577C18.3115 15.8593 18.3246 15.865 18.3356 15.8742C18.4549 15.9762 18.5792 16.0773 18.7055 16.1742C18.7154 16.1818 18.7234 16.1919 18.7287 16.2035C18.734 16.2152 18.7365 16.2281 18.7359 16.241C18.7353 16.2539 18.7317 16.2664 18.7253 16.2775C18.719 16.2885 18.7101 16.2978 18.6995 16.3044C18.1049 16.6627 17.4864 16.9658 16.8371 17.2179C16.8272 17.2217 16.8181 17.2277 16.8105 17.2354C16.8029 17.2432 16.797 17.2526 16.7931 17.2629C16.7893 17.2733 16.7875 17.2844 16.7881 17.2955C16.7887 17.3066 16.7915 17.3174 16.7964 17.3273C17.1543 18.0429 17.564 18.7242 18.0144 19.371C18.0238 19.3843 18.0368 19.3942 18.0518 19.3995C18.0667 19.4047 18.0828 19.4049 18.0979 19.4002C20.24 18.7248 22.2578 17.675 24.0658 16.295C24.0746 16.2885 24.082 16.2802 24.0875 16.2705C24.093 16.2608 24.0965 16.25 24.0976 16.2387C24.5948 10.9325 23.2644 6.32208 20.5688 2.23667C20.5622 2.22339 20.5513 2.21304 20.538 2.2075ZM8.31085 13.4429C7.13556 13.4429 6.1661 12.3294 6.1661 10.9637C6.1661 9.59708 7.11667 8.48458 8.31085 8.48458C9.51397 8.48458 10.4745 9.60646 10.4556 10.9637C10.4556 12.3304 9.50502 13.4429 8.31085 13.4429ZM16.2405 13.4429C15.0643 13.4429 14.0958 12.3294 14.0958 10.9637C14.0958 9.59708 15.0454 8.48458 16.2405 8.48458C17.4437 8.48458 18.4042 9.60646 18.3853 10.9637C18.3853 12.3304 17.4447 13.4429 16.2405 13.4429Z" fill="white"/>
</svg>
