<svg width="25" height="26" viewBox="0 0 25 26" fill="none" xmlns="http://www.w3.org/2000/svg">
<path d="M12.5 0.152344C9.10781 0.152344 8.68125 0.167969 7.34844 0.227344C6.01562 0.289844 5.10781 0.499219 4.3125 0.808594C3.47827 1.12237 2.72264 1.61457 2.09844 2.25078C1.46262 2.87531 0.97048 3.63084 0.65625 4.46484C0.346875 5.25859 0.135937 6.16797 0.075 7.49609C0.015625 8.83203 0 9.25703 0 12.6539C0 16.0477 0.015625 16.4727 0.075 17.8055C0.1375 19.1367 0.346875 20.0445 0.65625 20.8398C0.976562 21.6617 1.40313 22.3586 2.09844 23.0539C2.79219 23.7492 3.48906 24.1773 4.31094 24.4961C5.10781 24.8055 6.01406 25.0164 7.34531 25.0773C8.67969 25.1367 9.10469 25.1523 12.5 25.1523C15.8953 25.1523 16.3188 25.1367 17.6531 25.0773C18.9828 25.0148 19.8938 24.8055 20.6891 24.4961C21.5228 24.1822 22.2778 23.69 22.9016 23.0539C23.5969 22.3586 24.0234 21.6617 24.3438 20.8398C24.6516 20.0445 24.8625 19.1367 24.925 17.8055C24.9844 16.4727 25 16.0477 25 12.6523C25 9.25703 24.9844 8.83203 24.925 7.49766C24.8625 6.16797 24.6516 5.25859 24.3438 4.46484C24.0296 3.63082 23.5374 2.87527 22.9016 2.25078C22.2775 1.61434 21.5219 1.1221 20.6875 0.808594C19.8906 0.499219 18.9813 0.288281 17.6516 0.227344C16.3172 0.167969 15.8938 0.152344 12.4969 0.152344H12.5016H12.5ZM11.3797 2.40547H12.5016C15.8391 2.40547 16.2344 2.41641 17.5516 2.47734C18.7703 2.53203 19.4328 2.73672 19.8734 2.90703C20.4562 3.13359 20.8734 3.40547 21.3109 3.84297C21.7484 4.28047 22.0188 4.69609 22.2453 5.28047C22.4172 5.71953 22.6203 6.38203 22.675 7.60078C22.7359 8.91797 22.7484 9.31328 22.7484 12.6492C22.7484 15.9852 22.7359 16.382 22.675 17.6992C22.6203 18.918 22.4156 19.5789 22.2453 20.0195C22.0449 20.5623 21.725 21.053 21.3094 21.4555C20.8719 21.893 20.4563 22.1633 19.8719 22.3898C19.4344 22.5617 18.7719 22.7648 17.5516 22.8211C16.2344 22.8805 15.8391 22.8945 12.5016 22.8945C9.16406 22.8945 8.76719 22.8805 7.45 22.8211C6.23125 22.7648 5.57031 22.5617 5.12969 22.3898C4.58672 22.1897 4.09551 21.8704 3.69219 21.4555C3.27617 21.0524 2.95582 20.5612 2.75469 20.018C2.58437 19.5789 2.37969 18.9164 2.325 17.6977C2.26562 16.3805 2.25312 15.9852 2.25312 12.6461C2.25312 9.30859 2.26562 8.91484 2.325 7.59766C2.38125 6.37891 2.58438 5.71641 2.75625 5.27578C2.98281 4.69297 3.25469 4.27578 3.69219 3.83828C4.12969 3.40078 4.54531 3.13047 5.12969 2.90391C5.57031 2.73203 6.23125 2.52891 7.45 2.47266C8.60313 2.41953 9.05 2.40391 11.3797 2.40234V2.40547ZM19.1734 4.48047C18.9765 4.48047 18.7814 4.51927 18.5994 4.59465C18.4174 4.67003 18.2521 4.78052 18.1128 4.91981C17.9735 5.0591 17.863 5.22446 17.7876 5.40644C17.7122 5.58843 17.6734 5.78349 17.6734 5.98047C17.6734 6.17745 17.7122 6.37251 17.7876 6.55449C17.863 6.73648 17.9735 6.90184 18.1128 7.04113C18.2521 7.18042 18.4174 7.29091 18.5994 7.36629C18.7814 7.44167 18.9765 7.48047 19.1734 7.48047C19.5713 7.48047 19.9528 7.32243 20.2341 7.04113C20.5154 6.75982 20.6734 6.37829 20.6734 5.98047C20.6734 5.58264 20.5154 5.20111 20.2341 4.91981C19.9528 4.6385 19.5713 4.48047 19.1734 4.48047ZM12.5016 6.23359C11.6501 6.22031 10.8045 6.37654 10.014 6.69319C9.22353 7.00984 8.50393 7.48058 7.89711 8.07801C7.29029 8.67543 6.80838 9.3876 6.47944 10.1731C6.1505 10.9585 5.98109 11.8016 5.98109 12.6531C5.98109 13.5047 6.1505 14.3477 6.47944 15.1332C6.80838 15.9186 7.29029 16.6308 7.89711 17.2282C8.50393 17.8257 9.22353 18.2964 10.014 18.6131C10.8045 18.9297 11.6501 19.0859 12.5016 19.0727C14.1868 19.0464 15.7941 18.3585 16.9765 17.1574C18.159 15.9564 18.8217 14.3386 18.8217 12.6531C18.8217 10.9677 18.159 9.34986 16.9765 8.14883C15.7941 6.94779 14.1868 6.25989 12.5016 6.23359ZM12.5016 8.48516C13.6068 8.48516 14.6667 8.9242 15.4482 9.7057C16.2297 10.4872 16.6688 11.5471 16.6688 12.6523C16.6688 13.7576 16.2297 14.8175 15.4482 15.599C14.6667 16.3805 13.6068 16.8195 12.5016 16.8195C11.3964 16.8195 10.3364 16.3805 9.55492 15.599C8.77342 14.8175 8.33438 13.7576 8.33438 12.6523C8.33438 11.5471 8.77342 10.4872 9.55492 9.7057C10.3364 8.9242 11.3964 8.48516 12.5016 8.48516Z" fill="white"/>
</svg>
