<svg width="24" height="20" viewBox="0 0 24 20" fill="none" xmlns="http://www.w3.org/2000/svg">
<path d="M23.6435 2.93757C22.8085 3.30757 21.9115 3.55757 20.9685 3.67057C21.9415 3.08836 22.6694 2.17203 23.0165 1.09257C22.1023 1.63555 21.1018 2.01776 20.0585 2.22257C19.3569 1.47343 18.4276 0.976891 17.4148 0.810039C16.4021 0.643187 15.3626 0.815357 14.4577 1.29982C13.5529 1.78428 12.8333 2.55393 12.4107 3.48927C11.988 4.42461 11.886 5.47332 12.1205 6.47257C10.2682 6.37956 8.45613 5.89811 6.80192 5.05947C5.14772 4.22083 3.68834 3.04373 2.5185 1.60457C2.1185 2.29457 1.8885 3.09457 1.8885 3.94657C1.88805 4.71356 2.07693 5.46881 2.43838 6.1453C2.79982 6.82179 3.32266 7.3986 3.9605 7.82457C3.22078 7.80103 2.49737 7.60115 1.8505 7.24157V7.30156C1.85043 8.37731 2.22253 9.41994 2.90368 10.2526C3.58483 11.0852 4.53307 11.6565 5.5875 11.8696C4.90128 12.0553 4.18184 12.0826 3.4835 11.9496C3.781 12.8752 4.3605 13.6846 5.14087 14.2645C5.92124 14.8444 6.86342 15.1657 7.8355 15.1836C6.18533 16.479 4.14739 17.1817 2.0495 17.1786C1.67788 17.1787 1.30658 17.157 0.9375 17.1136C3.06698 18.4827 5.54584 19.2094 8.0775 19.2066C16.6475 19.2066 21.3325 12.1086 21.3325 5.95257C21.3325 5.75257 21.3275 5.55056 21.3185 5.35056C22.2298 4.69154 23.0164 3.87546 23.6415 2.94057L23.6435 2.93757Z" fill="white"/>
</svg>
