<svg width="24" height="22" viewBox="0 0 24 22" fill="none" xmlns="http://www.w3.org/2000/svg">
<path d="M22.3125 0.921875H5.4375C5.00238 0.921875 4.58508 1.09473 4.2774 1.4024C3.96973 1.71008 3.79688 2.12738 3.79688 2.5625V4.67188H1.6875C1.25238 4.67188 0.83508 4.84473 0.527403 5.1524C0.219726 5.46008 0.046875 5.87738 0.046875 6.3125V19.4375C0.046875 19.8726 0.219726 20.2899 0.527403 20.5976C0.83508 20.9053 1.25238 21.0781 1.6875 21.0781H18.5625C18.9976 21.0781 19.4149 20.9053 19.7226 20.5976C20.0303 20.2899 20.2031 19.8726 20.2031 19.4375V17.3281H22.3125C22.7476 17.3281 23.1649 17.1553 23.4726 16.8476C23.7803 16.5399 23.9531 16.1226 23.9531 15.6875V2.5625C23.9531 2.12738 23.7803 1.71008 23.4726 1.4024C23.1649 1.09473 22.7476 0.921875 22.3125 0.921875ZM1.6875 6.07812H18.5625C18.6247 6.07812 18.6843 6.10282 18.7282 6.14677C18.7722 6.19073 18.7969 6.25034 18.7969 6.3125V8.42188H1.45312V6.3125C1.45312 6.25034 1.47782 6.19073 1.52177 6.14677C1.56573 6.10282 1.62534 6.07812 1.6875 6.07812ZM18.7969 19.4375C18.7969 19.4997 18.7722 19.5593 18.7282 19.6032C18.6843 19.6472 18.6247 19.6719 18.5625 19.6719H1.6875C1.62534 19.6719 1.56573 19.6472 1.52177 19.6032C1.47782 19.5593 1.45312 19.4997 1.45312 19.4375V9.82812H18.7969V19.4375ZM22.5469 15.6875C22.5469 15.7497 22.5222 15.8093 22.4782 15.8532C22.4343 15.8972 22.3747 15.9219 22.3125 15.9219H20.2031V6.3125C20.2031 5.87738 20.0303 5.46008 19.7226 5.1524C19.4149 4.84473 18.9976 4.67188 18.5625 4.67188H5.20312V2.5625C5.20312 2.50034 5.22782 2.44073 5.27177 2.39677C5.31573 2.35282 5.37534 2.32812 5.4375 2.32812H22.3125C22.3747 2.32812 22.4343 2.35282 22.4782 2.39677C22.5222 2.44073 22.5469 2.50034 22.5469 2.5625V15.6875Z" fill="#454545"/>
</svg>
