<svg width="23" height="17" viewBox="0 0 23 17" fill="none" xmlns="http://www.w3.org/2000/svg">
<path d="M21.222 0.166016H1.77756C1.4092 0.166016 1.05594 0.312344 0.795468 0.572812C0.535001 0.833279 0.388672 1.18655 0.388672 1.5549V15.4438C0.388672 15.8121 0.535001 16.1654 0.795468 16.4259C1.05594 16.6864 1.4092 16.8327 1.77756 16.8327H21.222C21.5904 16.8327 21.9436 16.6864 22.2041 16.4259C22.4646 16.1654 22.6109 15.8121 22.6109 15.4438V1.5549C22.6109 1.18655 22.4646 0.833279 22.2041 0.572812C21.9436 0.312344 21.5904 0.166016 21.222 0.166016ZM20.1526 15.4438H2.93034L7.79145 10.416L6.79145 9.45074L1.77756 14.6382V2.61046L10.4095 11.2007C10.6697 11.4594 11.0217 11.6046 11.3887 11.6046C11.7556 11.6046 12.1076 11.4594 12.3678 11.2007L21.222 2.39518V14.548L16.1109 9.43685L15.1317 10.416L20.1526 15.4438ZM2.68728 1.5549H20.097L11.3887 10.2146L2.68728 1.5549Z" fill="#454545"/>
</svg>
