<svg width="23" height="23" viewBox="0 0 23 23" fill="none" xmlns="http://www.w3.org/2000/svg">
<path d="M1.5 2.75C1.5 2.15326 1.73705 1.58097 2.15901 1.15901C2.58097 0.737053 3.15326 0.5 3.75 0.5H20.25C20.8467 0.5 21.419 0.737053 21.841 1.15901C22.2629 1.58097 22.5 2.15326 22.5 2.75V13.25C22.5 13.8467 22.2629 14.419 21.841 14.841C21.419 15.2629 20.8467 15.5 20.25 15.5H12V14H20.25C20.4489 14 20.6397 13.921 20.7803 13.7803C20.921 13.6397 21 13.4489 21 13.25V2.75C21 2.55109 20.921 2.36032 20.7803 2.21967C20.6397 2.07902 20.4489 2 20.25 2H3.75C3.55109 2 3.36032 2.07902 3.21967 2.21967C3.07902 2.36032 3 2.55109 3 2.75V5H1.5V2.75ZM4.5 18.5C4.30109 18.5 4.11032 18.579 3.96967 18.7197C3.82902 18.8603 3.75 19.0511 3.75 19.25C3.75 19.4489 3.82902 19.6397 3.96967 19.7803C4.11032 19.921 4.30109 20 4.5 20H6C6.19891 20 6.38968 19.921 6.53033 19.7803C6.67098 19.6397 6.75 19.4489 6.75 19.25C6.75 19.0511 6.67098 18.8603 6.53033 18.7197C6.38968 18.579 6.19891 18.5 6 18.5H4.5ZM0 8.75C0 8.15326 0.237053 7.58097 0.65901 7.15901C1.08097 6.73705 1.65326 6.5 2.25 6.5H8.25C8.84674 6.5 9.41903 6.73705 9.84099 7.15901C10.2629 7.58097 10.5 8.15326 10.5 8.75V20.75C10.5 21.3467 10.2629 21.919 9.84099 22.341C9.41903 22.7629 8.84674 23 8.25 23H2.25C1.65326 23 1.08097 22.7629 0.65901 22.341C0.237053 21.919 0 21.3467 0 20.75V8.75ZM2.25 8C2.05109 8 1.86032 8.07902 1.71967 8.21967C1.57902 8.36032 1.5 8.55109 1.5 8.75V20.75C1.5 20.9489 1.57902 21.1397 1.71967 21.2803C1.86032 21.421 2.05109 21.5 2.25 21.5H8.25C8.44891 21.5 8.63968 21.421 8.78033 21.2803C8.92098 21.1397 9 20.9489 9 20.75V8.75C9 8.55109 8.92098 8.36032 8.78033 8.21967C8.63968 8.07902 8.44891 8 8.25 8H2.25Z" fill="#454545"/>
</svg>
