<svg width="25" height="26" viewBox="0 0 25 26" fill="none" xmlns="http://www.w3.org/2000/svg">
<path d="M22.4527 4.31786C22.358 4.30811 22.2626 4.30811 22.168 4.31786H2.72352C2.5989 4.31978 2.47511 4.33847 2.35547 4.37342L12.3902 14.3665L22.4527 4.31786Z" fill="#454545"/>
<path d="M23.4787 5.2832L13.3676 15.3526C13.1074 15.6113 12.7554 15.7565 12.3885 15.7565C12.0215 15.7565 11.6695 15.6113 11.4093 15.3526L1.38845 5.35959C1.35765 5.47281 1.34132 5.58948 1.33984 5.70681V19.5957C1.33984 19.9641 1.48617 20.3173 1.74664 20.5778C2.00711 20.8383 2.36038 20.9846 2.72873 20.9846H22.1732C22.5415 20.9846 22.8948 20.8383 23.1553 20.5778C23.4157 20.3173 23.5621 19.9641 23.5621 19.5957V5.70681C23.5565 5.56213 23.5284 5.4192 23.4787 5.2832V5.2832ZM3.68012 19.5957H2.71484V18.6026L7.76346 13.5957L8.74262 14.5749L3.68012 19.5957ZM22.1593 19.5957H21.1871L16.1246 14.5749L17.1037 13.5957L22.1523 18.6026L22.1593 19.5957Z" fill="#454545"/>
</svg>
