<svg width="69" height="70" viewBox="0 0 69 70" fill="none" xmlns="http://www.w3.org/2000/svg">
<path d="M44.1265 60.1601L44.071 60.553L44.2999 60.877C46.345 63.7715 49.66 65.9 53.4583 65.9C57.2566 65.9 60.5717 63.7715 62.6167 60.877L62.8 60.6176V60.3C62.8 59.2452 62.2357 58.3977 61.5416 57.7683C60.8484 57.1397 59.9381 56.6431 59.0037 56.2601C57.1394 55.496 54.9256 55.0833 53.4583 55.0833C51.9855 55.0833 49.8633 55.4984 48.0462 56.2638C47.1333 56.6484 46.2467 57.1423 45.5463 57.7582C44.8481 58.3724 44.2663 59.1711 44.1265 60.1601ZM29.7083 54.1667C29.7083 58.9135 31.0305 63.3316 33.373 67.1094C31.9252 67.6784 30.4847 68.1833 28.8439 68.4794C13.1328 64.6756 1.375 48.6941 1.375 31.9333V13.7996L28.8125 1.59448L56.25 13.7996V30.3038C55.2775 30.1663 54.2754 30.1665 53.532 30.1667L53.4583 30.1667C40.3833 30.1667 29.7083 40.9747 29.7083 54.1667ZM39.2917 54.1667C39.2917 46.2753 45.6792 39.8333 53.4583 39.8333C61.2374 39.8333 67.625 46.2753 67.625 54.1667C67.625 62.058 61.2374 68.5 53.4583 68.5C45.6792 68.5 39.2917 62.058 39.2917 54.1667ZM58.6292 48.4167C58.6292 45.5747 56.2959 43.2 53.4583 43.2C50.6208 43.2 48.2875 45.5747 48.2875 48.4167C48.2875 51.2586 50.6208 53.6333 53.4583 53.6333C56.2959 53.6333 58.6292 51.2586 58.6292 48.4167Z" stroke="#55AEF0" stroke-width="2"/>
</svg>
