<svg width="40" height="40" viewBox="0 0 40 40" fill="none" xmlns="http://www.w3.org/2000/svg">
<path d="M40.0001 20.1226C40.0001 9.00756 31.0451 -0.00244141 20.0001 -0.00244141C8.95012 5.85939e-05 -0.00488281 9.00756 -0.00488281 20.1251C-0.00488281 30.1676 7.31012 38.4926 16.8701 40.0026V25.9401H11.7951V20.1251H16.8751V15.6876C16.8751 10.6451 19.8626 7.86006 24.4301 7.86006C26.6201 7.86006 28.9076 8.25256 28.9076 8.25256V13.2026H26.3851C23.9026 13.2026 23.1276 14.7551 23.1276 16.3476V20.1226H28.6726L27.7876 25.9376H23.1251V40.0001C32.6851 38.4901 40.0001 30.1651 40.0001 20.1226Z" fill="#3B5998"/>
</svg>
