<svg width="41" height="41" viewBox="0 0 41 41" fill="none" xmlns="http://www.w3.org/2000/svg">
<path d="M20.5 0.8125C9.62793 0.8125 0.8125 9.62793 0.8125 20.5C0.8125 31.3721 9.62793 40.1875 20.5 40.1875C31.3721 40.1875 40.1875 31.3721 40.1875 20.5C40.1875 9.62793 31.3721 0.8125 20.5 0.8125ZM27.8389 28.6562C26.0547 30.2998 23.6201 31.2666 20.7153 31.2666C16.5098 31.2666 12.8711 28.854 11.1001 25.3384C10.3706 23.8838 9.95312 22.2402 9.95312 20.5C9.95312 18.7598 10.3706 17.1162 11.1001 15.6616C12.8711 12.1416 16.5098 9.729 20.7153 9.729C23.6157 9.729 26.0503 10.7969 27.918 12.5327L24.833 15.6221C23.7168 14.5542 22.2974 14.0137 20.7197 14.0137C17.916 14.0137 15.543 15.9077 14.6948 18.4521C14.4795 19.0981 14.3564 19.7881 14.3564 20.5C14.3564 21.2119 14.4795 21.9019 14.6948 22.5478C15.543 25.0923 17.916 26.9863 20.7153 26.9863C22.1655 26.9863 23.396 26.604 24.3584 25.958C25.501 25.1934 26.2568 24.0552 26.5073 22.7061H20.7153V18.54H30.8535C30.981 19.2476 31.0469 19.9814 31.0469 20.7417C31.0469 24.0244 29.8735 26.7798 27.8389 28.6562Z" fill="#4287F8"/>
</svg>
