<svg width="25" height="25" viewBox="0 0 25 25" fill="none" xmlns="http://www.w3.org/2000/svg">
    <path d="M4.51389 0C3.31673 0 2.16861 0.475569 1.32209 1.32209C0.475569 2.16861 0 3.31673 0 4.51389V20.4861C0 21.6833 0.475569 22.8314 1.32209 23.6779C2.16861 24.5244 3.31673 25 4.51389 25H20.4861C21.6833 25 22.8314 24.5244 23.6779 23.6779C24.5244 22.8314 25 21.6833 25 20.4861V4.51389C25 3.31673 24.5244 2.16861 23.6779 1.32209C22.8314 0.475569 21.6833 0 20.4861 0H4.51389ZM18.4444 9.41667L11.5 16.3611C11.3047 16.5562 11.0399 16.6657 10.7639 16.6657C10.4878 16.6657 10.2231 16.5562 10.0278 16.3611L7.24444 13.5778C7.1421 13.4824 7.06002 13.3674 7.00308 13.2396C6.94615 13.1119 6.91553 12.9739 6.91307 12.8341C6.9106 12.6942 6.93633 12.5553 6.98872 12.4256C7.04111 12.2959 7.11909 12.178 7.218 12.0791C7.31692 11.9802 7.43474 11.9022 7.56445 11.8498C7.69415 11.7974 7.83308 11.7717 7.97295 11.7742C8.11281 11.7766 8.25075 11.8073 8.37853 11.8642C8.5063 11.9211 8.6213 12.0032 8.71667 12.1056L10.7639 14.1514L16.9722 7.94306C17.0684 7.84361 17.1833 7.76431 17.3105 7.70978C17.4376 7.65525 17.5743 7.62658 17.7126 7.62544C17.8509 7.6243 17.988 7.65072 18.116 7.70316C18.244 7.7556 18.3603 7.833 18.4581 7.93085C18.5558 8.0287 18.6331 8.14504 18.6854 8.27308C18.7377 8.40112 18.764 8.5383 18.7628 8.67661C18.7615 8.81492 18.7327 8.95159 18.678 9.07866C18.6234 9.20572 18.544 9.32062 18.4444 9.41667V9.41667Z" fill="#5AA3D9"/>
</svg>
