<svg width="24" height="19" viewBox="0 0 24 19" fill="none" xmlns="http://www.w3.org/2000/svg">
<path d="M20.202 1.6782C18.6807 0.959453 17.0501 0.428203 15.3448 0.12612C15.3296 0.123066 15.3139 0.125034 15.2998 0.131753C15.2857 0.138471 15.274 0.149608 15.2662 0.16362C15.0574 0.547995 14.8248 1.04904 14.6617 1.44487C12.8531 1.16178 11.0144 1.16178 9.20588 1.44487C9.02425 1.00618 8.81943 0.578437 8.59238 0.16362C8.58469 0.149435 8.57304 0.138047 8.55901 0.130974C8.54497 0.123902 8.52921 0.121481 8.51383 0.124037C6.80957 0.42612 5.17889 0.95737 3.65659 1.67716C3.64349 1.68292 3.63239 1.69273 3.62477 1.70529C0.53045 6.47091 -0.317704 11.1188 0.0989154 15.7084C0.100075 15.7197 0.103405 15.7305 0.108704 15.7404C0.114004 15.7502 0.12116 15.7588 0.129739 15.7657C1.93581 17.1432 3.95025 18.1926 6.08869 18.8699C6.1036 18.8747 6.11954 18.8747 6.13444 18.8698C6.14934 18.865 6.1625 18.8556 6.17221 18.8428C6.63159 18.197 7.04125 17.5147 7.39125 16.798C7.41213 16.7563 7.39224 16.7063 7.35048 16.6897C6.70815 16.4363 6.08579 16.1305 5.48911 15.7751C5.47839 15.7687 5.46936 15.7596 5.46282 15.7486C5.45629 15.7376 5.45245 15.7251 5.45166 15.7122C5.45087 15.6993 5.45316 15.6864 5.4583 15.6746C5.46345 15.6629 5.47131 15.6527 5.48116 15.6449C5.60644 15.548 5.73173 15.447 5.85105 15.3459C5.86179 15.3368 5.87472 15.331 5.88842 15.3292C5.90211 15.3274 5.91602 15.3295 5.9286 15.3355C9.83329 17.173 14.0621 17.173 17.9211 15.3355C17.9337 15.3292 17.9477 15.3267 17.9616 15.3284C17.9755 15.33 17.9887 15.3358 17.9996 15.3449C18.1189 15.447 18.2432 15.548 18.3695 15.6449C18.3795 15.6525 18.3874 15.6626 18.3928 15.6742C18.3981 15.6859 18.4005 15.6988 18.4 15.7117C18.3994 15.7246 18.3957 15.7371 18.3894 15.7482C18.383 15.7592 18.3741 15.7685 18.3635 15.7751C17.7689 16.1334 17.1505 16.4365 16.5012 16.6886C16.4912 16.6924 16.4821 16.6984 16.4745 16.7062C16.467 16.7139 16.461 16.7233 16.4572 16.7336C16.4533 16.744 16.4516 16.7551 16.4522 16.7662C16.4527 16.7773 16.4555 16.7881 16.4604 16.798C16.8184 17.5136 17.228 18.1949 17.6785 18.8417C17.6878 18.855 17.7009 18.8649 17.7158 18.8702C17.7308 18.8754 17.7469 18.8756 17.762 18.8709C19.9041 18.1955 21.9218 17.1457 23.7299 15.7657C23.7387 15.7592 23.7461 15.7509 23.7516 15.7412C23.7571 15.7315 23.7605 15.7207 23.7617 15.7095C24.2589 10.4032 22.9285 5.79279 20.2329 1.70737C20.2263 1.69409 20.2153 1.68374 20.202 1.6782ZM7.97491 12.9136C6.79963 12.9136 5.83017 11.8001 5.83017 10.4345C5.83017 9.06779 6.78074 7.95529 7.97491 7.95529C9.17804 7.95529 10.1385 9.07716 10.1197 10.4345C10.1197 11.8011 9.16909 12.9136 7.97491 12.9136ZM15.9046 12.9136C14.7283 12.9136 13.7599 11.8001 13.7599 10.4345C13.7599 9.06779 14.7094 7.95529 15.9046 7.95529C17.1077 7.95529 18.0682 9.07716 18.0493 10.4345C18.0493 11.8011 17.1087 12.9136 15.9046 12.9136Z" fill="#5865F2"/>
</svg>
