<svg width="30" height="30" viewBox="0 0 30 30" fill="none" xmlns="http://www.w3.org/2000/svg">
<path d="M14.0625 10.3125C14.0625 10.0639 14.1613 9.8254 14.3371 9.64959C14.5129 9.47377 14.7514 9.375 15 9.375C15.2486 9.375 15.4871 9.47377 15.6629 9.64959C15.8387 9.8254 15.9375 10.0639 15.9375 10.3125V14.0625H19.6875C19.9361 14.0625 20.1746 14.1613 20.3504 14.3371C20.5262 14.5129 20.625 14.7514 20.625 15C20.625 15.2486 20.5262 15.4871 20.3504 15.6629C20.1746 15.8387 19.9361 15.9375 19.6875 15.9375H15.9375V19.6875C15.9375 19.9361 15.8387 20.1746 15.6629 20.3504C15.4871 20.5262 15.2486 20.625 15 20.625C14.7514 20.625 14.5129 20.5262 14.3371 20.3504C14.1613 20.1746 14.0625 19.9361 14.0625 19.6875V15.9375H10.3125C10.0639 15.9375 9.8254 15.8387 9.64959 15.6629C9.47377 15.4871 9.375 15.2486 9.375 15C9.375 14.7514 9.47377 14.5129 9.64959 14.3371C9.8254 14.1613 10.0639 14.0625 10.3125 14.0625H14.0625V10.3125ZM28.125 15C28.125 22.2488 22.2488 28.125 15 28.125C7.75125 28.125 1.875 22.2488 1.875 15C1.875 7.75125 7.75125 1.875 15 1.875C22.2488 1.875 28.125 7.75125 28.125 15ZM26.25 15C26.25 8.78719 21.2128 3.75 15 3.75C8.78719 3.75 3.75 8.78719 3.75 15C3.75 21.2128 8.78719 26.25 15 26.25C21.2128 26.25 26.25 21.2128 26.25 15Z" fill="white"/>
</svg>
