<svg width="15" height="15" viewBox="0 0 15 15" fill="none" xmlns="http://www.w3.org/2000/svg">
<circle cx="7.50014" cy="7.50112" r="6.57143" fill="#82C732" stroke="#82C732"/>
<mask id="path-2-outside-1_490_1944" maskUnits="userSpaceOnUse" x="3.68555" y="4.85938" width="8" height="6" fill="black">
<rect fill="white" x="3.68555" y="4.85938" width="8" height="6"/>
<path d="M10.2479 5.92989C10.2905 5.97544 10.3136 6.03575 10.3125 6.09807C10.3114 6.16038 10.2862 6.21984 10.2421 6.26387L6.8026 9.54512C6.75746 9.58566 6.69921 9.60855 6.63854 9.60958C6.57946 9.60935 6.52276 9.58625 6.48034 9.54512L4.75768 7.9045C4.73537 7.88295 4.71752 7.85722 4.70515 7.82878C4.69277 7.80034 4.68613 7.76973 4.68558 7.73872C4.68504 7.70771 4.69061 7.67689 4.70197 7.64803C4.71334 7.61917 4.73028 7.59283 4.75182 7.57051C4.77337 7.5482 4.7991 7.53035 4.82754 7.51798C4.85599 7.50561 4.88659 7.49896 4.9176 7.49841C4.94862 7.49787 4.97943 7.50344 5.00829 7.5148C5.03715 7.52617 5.06349 7.54311 5.08581 7.56465L6.63854 9.05294L9.91393 5.92403C9.95949 5.88149 10.0198 5.85832 10.0821 5.85941C10.1444 5.86051 10.2039 5.88578 10.2479 5.92989Z"/>
</mask>
<path d="M10.2479 5.92989C10.2905 5.97544 10.3136 6.03575 10.3125 6.09807C10.3114 6.16038 10.2862 6.21984 10.2421 6.26387L6.8026 9.54512C6.75746 9.58566 6.69921 9.60855 6.63854 9.60958C6.57946 9.60935 6.52276 9.58625 6.48034 9.54512L4.75768 7.9045C4.73537 7.88295 4.71752 7.85722 4.70515 7.82878C4.69277 7.80034 4.68613 7.76973 4.68558 7.73872C4.68504 7.70771 4.69061 7.67689 4.70197 7.64803C4.71334 7.61917 4.73028 7.59283 4.75182 7.57051C4.77337 7.5482 4.7991 7.53035 4.82754 7.51798C4.85599 7.50561 4.88659 7.49896 4.9176 7.49841C4.94862 7.49787 4.97943 7.50344 5.00829 7.5148C5.03715 7.52617 5.06349 7.54311 5.08581 7.56465L6.63854 9.05294L9.91393 5.92403C9.95949 5.88149 10.0198 5.85832 10.0821 5.85941C10.1444 5.86051 10.2039 5.88578 10.2479 5.92989Z" fill="white"/>
<path d="M10.2479 5.92989L10.6134 5.58863L10.6077 5.58254L10.6018 5.57665L10.2479 5.92989ZM10.2421 6.26387L10.5873 6.62574L10.5953 6.61774L10.2421 6.26387ZM6.8026 9.54512L7.13667 9.91714L7.14228 9.91211L7.14774 9.9069L6.8026 9.54512ZM6.63854 9.60958L6.63664 10.1097L6.64703 10.1095L6.63854 9.60958ZM6.48034 9.54512L6.82841 9.18614L6.82517 9.18305L6.48034 9.54512ZM4.75768 7.9045L4.41038 8.26421L4.41286 8.26657L4.75768 7.9045ZM5.08581 7.56465L4.73851 7.92436L4.73983 7.92562L5.08581 7.56465ZM6.63854 9.05294L6.29256 9.4139L6.63796 9.74497L6.98392 9.41448L6.63854 9.05294ZM9.91393 5.92403L9.57265 5.55857L9.56856 5.56248L9.91393 5.92403ZM9.88248 6.27114C9.83648 6.22189 9.81143 6.15668 9.81261 6.08929L10.8125 6.10684C10.8158 5.91481 10.7444 5.729 10.6134 5.58863L9.88248 6.27114ZM9.81261 6.08929C9.81379 6.02191 9.84112 5.95762 9.88882 5.91001L10.5953 6.61774C10.7312 6.48205 10.8091 6.29885 10.8125 6.10684L9.81261 6.08929ZM9.89692 5.9021L6.45747 9.18335L7.14774 9.9069L10.5872 6.62565L9.89692 5.9021ZM6.46854 9.1731C6.51298 9.13319 6.57033 9.11066 6.63006 9.10965L6.64703 10.1095C6.82808 10.1064 7.00194 10.0381 7.13667 9.91714L6.46854 9.1731ZM6.64044 9.10958C6.71063 9.10985 6.778 9.13729 6.82839 9.18615L6.13229 9.90409C6.26752 10.0352 6.44828 10.1089 6.63665 10.1096L6.64044 9.10958ZM6.82517 9.18305L5.10251 7.54243L4.41286 8.26657L6.13551 9.90719L6.82517 9.18305ZM5.10498 7.5448C5.1299 7.56886 5.14984 7.59759 5.16366 7.62936L4.24663 8.02819C4.28519 8.11686 4.34084 8.19705 4.41039 8.2642L5.10498 7.5448ZM5.16366 7.62936C5.17748 7.66113 5.1849 7.69531 5.18551 7.72995L4.18566 7.74749C4.18736 7.84415 4.20807 7.93954 4.24663 8.02819L5.16366 7.62936ZM5.18551 7.72995C5.18611 7.76459 5.17989 7.79901 5.1672 7.83124L4.23675 7.46482C4.20133 7.55477 4.18396 7.65082 4.18566 7.74749L5.18551 7.72995ZM5.1672 7.83124C5.15451 7.86347 5.13559 7.89289 5.11152 7.91781L4.39212 7.22322C4.32497 7.29277 4.27217 7.37487 4.23675 7.46482L5.1672 7.83124ZM5.11152 7.91781C5.08746 7.94274 5.05872 7.96267 5.02696 7.97649L4.62813 7.05946C4.53947 7.09802 4.45928 7.15366 4.39212 7.22322L5.11152 7.91781ZM5.02696 7.97649C4.99519 7.9903 4.96102 7.99773 4.92637 7.99834L4.90883 6.99849C4.81216 7.00019 4.71678 7.02091 4.62813 7.05946L5.02696 7.97649ZM4.92637 7.99834C4.89173 7.99894 4.85731 7.99272 4.82508 7.98003L5.1915 7.04958C5.10155 7.01416 5.0055 6.99679 4.90883 6.99849L4.92637 7.99834ZM4.82508 7.98003C4.79285 7.96734 4.76343 7.94842 4.73851 7.92436L5.43311 7.20495C5.36356 7.1378 5.28146 7.08501 5.1915 7.04958L4.82508 7.98003ZM4.73983 7.92562L6.29256 9.4139L6.98453 8.69197L5.43179 7.20369L4.73983 7.92562ZM6.98392 9.41448L10.2593 6.28557L9.56856 5.56248L6.29317 8.69139L6.98392 9.41448ZM10.2552 6.28947C10.2059 6.33546 10.1407 6.36052 10.0733 6.35934L10.0909 5.35949C9.89886 5.35612 9.71304 5.42751 9.57268 5.55859L10.2552 6.28947ZM10.0733 6.35934C10.006 6.35815 9.94167 6.33083 9.89405 6.28313L10.6018 5.57665C10.4661 5.44073 10.2829 5.36286 10.0909 5.35949L10.0733 6.35934Z" fill="white" mask="url(#path-2-outside-1_490_1944)"/>
</svg>
