<svg width="15" height="15" viewBox="0 0 15 15" fill="none" xmlns="http://www.w3.org/2000/svg">
<circle cx="7.5" cy="7.5" r="7.5" fill="#888888"/>
<path d="M6.74475 7.51923L5.22418 5.99865C5.12623 5.89725 5.07204 5.76143 5.07326 5.62045C5.07449 5.47947 5.13104 5.34461 5.23073 5.24492C5.33042 5.14523 5.46528 5.08868 5.60625 5.08745C5.74723 5.08623 5.88305 5.14042 5.98446 5.23837L7.50504 6.75894L9.02561 5.23837C9.07521 5.18701 9.13454 5.14605 9.20014 5.11787C9.26574 5.08969 9.33629 5.07486 9.40769 5.07424C9.47908 5.07362 9.54988 5.08722 9.61596 5.11426C9.68204 5.14129 9.74207 5.18122 9.79256 5.2317C9.84304 5.28219 9.88297 5.34222 9.91001 5.4083C9.93704 5.47438 9.95064 5.54518 9.95002 5.61658C9.9494 5.68797 9.93457 5.75852 9.90639 5.82412C9.87821 5.88972 9.83725 5.94905 9.7859 5.99865L8.26532 7.51923L9.7859 9.0398C9.83725 9.0894 9.87821 9.14873 9.90639 9.21433C9.93457 9.27993 9.9494 9.35049 9.95002 9.42188C9.95064 9.49327 9.93704 9.56408 9.91001 9.63016C9.88297 9.69623 9.84304 9.75627 9.79256 9.80675C9.74207 9.85724 9.68204 9.89716 9.61596 9.9242C9.54988 9.95123 9.47908 9.96484 9.40769 9.96422C9.33629 9.9636 9.26574 9.94876 9.20014 9.92058C9.13454 9.8924 9.07521 9.85144 9.02561 9.80009L7.50504 8.27951L5.98446 9.80009C5.88305 9.89803 5.74723 9.95223 5.60625 9.951C5.46528 9.94978 5.33042 9.89323 5.23073 9.79354C5.13104 9.69385 5.07449 9.55899 5.07326 9.41801C5.07204 9.27703 5.12623 9.14121 5.22418 9.0398L6.74475 7.51923Z" fill="white"/>
</svg>
