<svg width="24" height="21" viewBox="0 0 24 21" fill="none" xmlns="http://www.w3.org/2000/svg">
<path d="M22.2656 0H5.39062C4.9555 0 4.5382 0.172851 4.23053 0.480528C3.92285 0.788205 3.75 1.2055 3.75 1.64062V3.75H1.64062C1.2055 3.75 0.788205 3.92285 0.480528 4.23053C0.172851 4.5382 0 4.9555 0 5.39062V18.5156C0 18.9507 0.172851 19.368 0.480528 19.6757C0.788205 19.9834 1.2055 20.1562 1.64062 20.1562H18.5156C18.9507 20.1562 19.368 19.9834 19.6757 19.6757C19.9834 19.368 20.1562 18.9507 20.1562 18.5156V16.4062H22.2656C22.7007 16.4062 23.118 16.2334 23.4257 15.9257C23.7334 15.618 23.9062 15.2007 23.9062 14.7656V1.64062C23.9062 1.2055 23.7334 0.788205 23.4257 0.480528C23.118 0.172851 22.7007 0 22.2656 0ZM1.64062 5.15625H18.5156C18.5778 5.15625 18.6374 5.18094 18.6814 5.2249C18.7253 5.26885 18.75 5.32846 18.75 5.39062V7.5H1.40625V5.39062C1.40625 5.32846 1.43094 5.26885 1.4749 5.2249C1.51885 5.18094 1.57846 5.15625 1.64062 5.15625ZM18.75 18.5156C18.75 18.5778 18.7253 18.6374 18.6814 18.6814C18.6374 18.7253 18.5778 18.75 18.5156 18.75H1.64062C1.57846 18.75 1.51885 18.7253 1.4749 18.6814C1.43094 18.6374 1.40625 18.5778 1.40625 18.5156V8.90625H18.75V18.5156ZM22.5 14.7656C22.5 14.8278 22.4753 14.8874 22.4314 14.9314C22.3874 14.9753 22.3278 15 22.2656 15H20.1562V5.39062C20.1562 4.9555 19.9834 4.5382 19.6757 4.23053C19.368 3.92285 18.9507 3.75 18.5156 3.75H5.15625V1.64062C5.15625 1.57846 5.18094 1.51885 5.2249 1.4749C5.26885 1.43094 5.32846 1.40625 5.39062 1.40625H22.2656C22.3278 1.40625 22.3874 1.43094 22.4314 1.4749C22.4753 1.51885 22.5 1.57846 22.5 1.64062V14.7656Z" fill="#454545"/>
</svg>
