<svg width="35" height="35" viewBox="0 0 35 35" fill="none" xmlns="http://www.w3.org/2000/svg">
<circle cx="17.5" cy="17.5" r="16" fill="#82C732" stroke="#82C732"/>
<path d="M24.2779 13.4951L24.2722 13.4891L24.2663 13.4832C24.0719 13.2884 23.8095 13.1769 23.5343 13.172C23.2592 13.1672 22.993 13.2695 22.7919 13.4573L22.7919 13.4573L22.7878 13.4612L15.4912 20.4315L12.2148 17.2912C12.2146 17.2909 12.2143 17.2907 12.2141 17.2904C12.1149 17.1949 11.998 17.1198 11.8699 17.0693C11.7414 17.0187 11.6043 16.994 11.4663 16.9964C11.3283 16.9988 11.1921 17.0284 11.0655 17.0834C10.9389 17.1385 10.8244 17.2179 10.7285 17.3172L11.0882 17.6645L10.7285 17.3172C10.6327 17.4165 10.5573 17.5338 10.5067 17.6622C10.4561 17.7906 10.4313 17.9278 10.4338 18.0658C10.4362 18.2038 10.4658 18.34 10.5208 18.4666C10.5759 18.5932 10.6553 18.7077 10.7546 18.8035L10.7546 18.8035L10.7571 18.8059L14.7753 22.6328C14.9669 22.8176 15.2224 22.9213 15.4887 22.9223L15.4887 22.9224L15.4991 22.9223C15.761 22.9178 16.0125 22.819 16.2075 22.644L16.2131 22.6389L16.2185 22.6337L24.2439 14.9775L24.244 14.9776L24.252 14.9696C24.4468 14.7752 24.5583 14.5127 24.5632 14.2376C24.568 13.9625 24.4657 13.6963 24.2779 13.4951Z" fill="white" stroke="white"/>
</svg>
