<svg width="33" height="33" viewBox="0 0 33 33" fill="none" xmlns="http://www.w3.org/2000/svg">
<circle cx="16.5" cy="16.5" r="16.5" fill="#888888"/>
<path d="M14.8384 16.5411L11.4932 13.1959C11.2777 12.9728 11.1585 12.674 11.1612 12.3638C11.1639 12.0537 11.2883 11.757 11.5076 11.5376C11.7269 11.3183 12.0236 11.1939 12.3338 11.1912C12.6439 11.1885 12.9427 11.3078 13.1658 11.5232L16.5111 14.8685L19.8563 11.5232C19.9655 11.4103 20.096 11.3201 20.2403 11.2581C20.3846 11.1962 20.5398 11.1635 20.6969 11.1622C20.854 11.1608 21.0097 11.1907 21.1551 11.2502C21.3005 11.3097 21.4326 11.3975 21.5436 11.5086C21.6547 11.6196 21.7425 11.7517 21.802 11.8971C21.8615 12.0425 21.8914 12.1982 21.8901 12.3553C21.8887 12.5124 21.8561 12.6676 21.7941 12.8119C21.7321 12.9562 21.642 13.0867 21.529 13.1959L18.1837 16.5411L21.529 19.8864C21.642 19.9955 21.7321 20.126 21.7941 20.2704C21.8561 20.4147 21.8887 20.5699 21.8901 20.727C21.8914 20.884 21.8615 21.0398 21.802 21.1852C21.7425 21.3305 21.6547 21.4626 21.5436 21.5737C21.4326 21.6847 21.3005 21.7726 21.1551 21.8321C21.0097 21.8915 20.854 21.9215 20.6969 21.9201C20.5398 21.9187 20.3846 21.8861 20.2403 21.8241C20.096 21.7621 19.9655 21.672 19.8563 21.559L16.5111 18.2138L13.1658 21.559C12.9427 21.7745 12.6439 21.8937 12.3338 21.891C12.0236 21.8883 11.7269 21.7639 11.5076 21.5446C11.2883 21.3253 11.1639 21.0286 11.1612 20.7184C11.1585 20.4083 11.2777 20.1095 11.4932 19.8864L14.8384 16.5411Z" fill="white"/>
</svg>
