<svg width="24" height="25" viewBox="0 0 24 25" fill="none" xmlns="http://www.w3.org/2000/svg">
<g clip-path="url(#clip0_14_4994)">
<path d="M20.202 4.6782C18.6807 3.95945 17.0501 3.4282 15.3448 3.12612C15.3296 3.12307 15.3139 3.12503 15.2998 3.13175C15.2857 3.13847 15.274 3.14961 15.2662 3.16362C15.0574 3.54799 14.8248 4.04904 14.6617 4.44487C12.8531 4.16178 11.0144 4.16178 9.20588 4.44487C9.02425 4.00618 8.81943 3.57844 8.59238 3.16362C8.58469 3.14944 8.57304 3.13805 8.55901 3.13097C8.54497 3.1239 8.52921 3.12148 8.51383 3.12404C6.80957 3.42612 5.17889 3.95737 3.65659 4.67716C3.64349 4.68292 3.63239 4.69273 3.62477 4.70529C0.53045 9.47091 -0.317704 14.1188 0.0989154 18.7084C0.100075 18.7197 0.103405 18.7305 0.108704 18.7404C0.114004 18.7502 0.12116 18.7588 0.129739 18.7657C1.93581 20.1432 3.95025 21.1926 6.08869 21.8699C6.1036 21.8747 6.11954 21.8747 6.13444 21.8698C6.14934 21.865 6.1625 21.8556 6.17221 21.8428C6.63159 21.197 7.04125 20.5147 7.39125 19.798C7.41213 19.7563 7.39224 19.7063 7.35048 19.6897C6.70815 19.4363 6.08579 19.1305 5.48911 18.7751C5.47839 18.7687 5.46936 18.7596 5.46282 18.7486C5.45629 18.7376 5.45245 18.7251 5.45166 18.7122C5.45087 18.6993 5.45316 18.6864 5.4583 18.6746C5.46345 18.6629 5.47131 18.6527 5.48116 18.6449C5.60644 18.548 5.73173 18.447 5.85105 18.3459C5.86179 18.3368 5.87472 18.331 5.88842 18.3292C5.90211 18.3274 5.91602 18.3295 5.9286 18.3355C9.83329 20.173 14.0621 20.173 17.9211 18.3355C17.9337 18.3292 17.9477 18.3267 17.9616 18.3284C17.9755 18.33 17.9887 18.3358 17.9996 18.3449C18.1189 18.447 18.2432 18.548 18.3695 18.6449C18.3795 18.6525 18.3874 18.6626 18.3928 18.6742C18.3981 18.6859 18.4005 18.6988 18.4 18.7117C18.3994 18.7246 18.3957 18.7371 18.3894 18.7482C18.383 18.7592 18.3741 18.7685 18.3635 18.7751C17.7689 19.1334 17.1505 19.4365 16.5012 19.6886C16.4912 19.6924 16.4821 19.6984 16.4745 19.7062C16.467 19.7139 16.461 19.7233 16.4572 19.7336C16.4533 19.744 16.4516 19.7551 16.4522 19.7662C16.4527 19.7773 16.4555 19.7881 16.4604 19.798C16.8184 20.5136 17.228 21.1949 17.6785 21.8417C17.6878 21.855 17.7009 21.8649 17.7158 21.8702C17.7308 21.8754 17.7469 21.8756 17.762 21.8709C19.9041 21.1955 21.9218 20.1457 23.7299 18.7657C23.7387 18.7592 23.7461 18.7509 23.7516 18.7412C23.7571 18.7315 23.7605 18.7207 23.7617 18.7095C24.2589 13.4032 22.9285 8.79279 20.2329 4.70737C20.2263 4.69409 20.2153 4.68374 20.202 4.6782ZM7.97491 15.9136C6.79963 15.9136 5.83017 14.8001 5.83017 13.4345C5.83017 12.0678 6.78074 10.9553 7.97491 10.9553C9.17804 10.9553 10.1385 12.0772 10.1197 13.4345C10.1197 14.8011 9.16909 15.9136 7.97491 15.9136ZM15.9046 15.9136C14.7283 15.9136 13.7599 14.8001 13.7599 13.4345C13.7599 12.0678 14.7094 10.9553 15.9046 10.9553C17.1077 10.9553 18.0682 12.0772 18.0493 13.4345C18.0493 14.8011 17.1087 15.9136 15.9046 15.9136Z" fill="#5865F2"/>
</g>
<defs>
<clipPath id="clip0_14_4994">
<rect width="23.8636" height="25" fill="white"/>
</clipPath>
</defs>
</svg>
