<svg width="25" height="25" viewBox="0 0 25 25" fill="none" xmlns="http://www.w3.org/2000/svg">
<path d="M22.4507 4.16747C22.3561 4.15772 22.2607 4.15772 22.166 4.16747H2.72157C2.59695 4.16939 2.47315 4.18808 2.35352 4.22303L12.3882 14.2161L22.4507 4.16747Z" fill="#888888"/>
<path d="M23.4787 5.13281L13.3676 15.2023C13.1074 15.4609 12.7554 15.6061 12.3885 15.6061C12.0215 15.6061 11.6695 15.4609 11.4093 15.2023L1.38845 5.2092C1.35765 5.32242 1.34132 5.43909 1.33984 5.55642V19.4453C1.33984 19.8137 1.48617 20.1669 1.74664 20.4274C2.00711 20.6879 2.36038 20.8342 2.72873 20.8342H22.1732C22.5415 20.8342 22.8948 20.6879 23.1553 20.4274C23.4157 20.1669 23.5621 19.8137 23.5621 19.4453V5.55642C23.5565 5.41174 23.5284 5.26881 23.4787 5.13281ZM3.68012 19.4453H2.71484V18.4523L7.76345 13.4453L8.74262 14.4245L3.68012 19.4453ZM22.1593 19.4453H21.1871L16.1246 14.4245L17.1037 13.4453L22.1523 18.4523L22.1593 19.4453Z" fill="#888888"/>
</svg>
