<svg width="30" height="30" viewBox="0 0 30 30" fill="none" xmlns="http://www.w3.org/2000/svg">
<path d="M0.890625 15C0.890625 21.1406 4.82813 26.3437 10.2656 28.2656V1.73438C4.82813 3.65625 0.890625 8.85937 0.890625 15Z" fill="#428BC1"/>
<path d="M29.0156 15C29.0156 8.85937 25.125 3.65625 19.6406 1.73438V28.2656C25.125 26.3437 29.0156 21.1406 29.0156 15Z" fill="#ED4C5C"/>
<path d="M10.2656 28.2656C11.7187 28.7812 13.3125 29.0625 14.9531 29.0625C16.5937 29.0625 18.1875 28.7812 19.6406 28.2656V1.73438C18.1875 1.21875 16.6406 0.9375 14.9531 0.9375C13.2656 0.9375 11.7187 1.21875 10.2656 1.73438V28.2656Z" fill="white"/>
</svg>
