<svg width="30" height="30" viewBox="0 0 30 30" fill="none" xmlns="http://www.w3.org/2000/svg">
<path d="M14.9531 0.9375C8.8125 0.9375 3.60938 4.875 1.6875 10.3125H28.2188C26.2969 4.875 21.0938 0.9375 14.9531 0.9375Z" fill="#3E4347"/>
<path d="M14.9531 29.0625C21.0938 29.0625 26.2969 25.1719 28.2188 19.6875H1.6875C3.60938 25.1719 8.8125 29.0625 14.9531 29.0625Z" fill="#FFE62E"/>
<path d="M1.6875 10.3125C1.17187 11.7656 0.890625 13.3594 0.890625 15C0.890625 16.6406 1.17187 18.2344 1.6875 19.6875H28.2187C28.7344 18.2344 29.0156 16.6406 29.0156 15C29.0156 13.3594 28.7344 11.7656 28.2187 10.3125H1.6875Z" fill="#ED4C5C"/>
</svg>
