<svg width="30" height="30" viewBox="0 0 30 30" fill="none" xmlns="http://www.w3.org/2000/svg">
<path d="M0.796875 15C0.796875 21.1406 4.73437 26.3437 10.1719 28.2656V1.73438C4.73437 3.65625 0.796875 8.85937 0.796875 15Z" fill="#75A843"/>
<path d="M28.9219 15C28.9219 8.85937 24.9844 3.65625 19.5469 1.73438V28.2656C25.0312 26.3437 28.9219 21.1406 28.9219 15Z" fill="#ED4C5C"/>
<path d="M10.1719 28.2656C11.625 28.7812 13.2188 29.0625 14.8594 29.0625C16.5 29.0625 18.0938 28.7812 19.5469 28.2656V1.73438C18.0938 1.21875 16.5 0.9375 14.8594 0.9375C13.2188 0.9375 11.625 1.21875 10.1719 1.73438V28.2656Z" fill="white"/>
</svg>
