<svg width="30" height="30" viewBox="0 0 30 30" fill="none" xmlns="http://www.w3.org/2000/svg">
<path d="M22.5 3.09375C20.3438 1.73437 17.7656 0.9375 15 0.9375C12.2344 0.9375 9.65625 1.73437 7.5 3.09375V26.8594C9.65625 28.2188 12.2344 29.0156 15 29.0156C17.7656 29.0156 20.3438 28.2188 22.5 26.8594V3.09375Z" fill="#F9F9F9"/>
<path d="M22.5 3.09375V26.8594C26.4375 24.4219 29.0625 19.9219 29.0625 14.9531C29.0625 9.98438 26.4375 5.57813 22.5 3.09375ZM7.5 3.09375C3.5625 5.57813 0.9375 10.0781 0.9375 15C0.9375 19.9219 3.5625 24.4219 7.5 26.9063V3.09375ZM20.1094 14.8125C19.9219 14.7188 19.875 14.5313 19.9219 14.4375L20.3906 12.75L18.75 13.0781C18.7031 13.0781 18.5156 13.0781 18.4688 12.75L18.3281 12.1875L17.2031 13.5C17.2031 13.5 16.4531 14.2969 16.6875 13.0781L17.1562 10.5L16.2656 10.9688C16.2188 10.9688 16.0312 11.0156 15.7969 10.5469L15 8.90625L14.1562 10.4531C13.9219 10.9219 13.7344 10.875 13.6875 10.875L12.7969 10.4063L13.2656 12.9844C13.5 14.2031 12.75 13.4063 12.75 13.4063L11.625 12.0938L11.4844 12.6563C11.3906 12.9844 11.25 12.9844 11.2031 12.9844L9.5625 12.6563L10.0312 14.3438C10.0312 14.4844 10.0312 14.625 9.84375 14.7188L9.375 15C9.375 15 11.25 16.5 11.8594 17.0156C12 17.1094 12.2812 17.3906 12.1875 17.7188L11.9531 18.375L14.5312 18C14.6719 18 14.9531 18 14.9062 18.4219L14.7656 21.0938H15.2344L15.0938 18.4219C15.0938 18 15.375 18 15.4688 18L18.0469 18.375L17.8125 17.7188C17.7188 17.3906 18 17.1094 18.1406 17.0156C18.75 16.5 20.625 15 20.625 15L20.1094 14.8125Z" fill="#ED4C5C"/>
</svg>
