<svg width="30" height="30" viewBox="0 0 30 30" fill="none" xmlns="http://www.w3.org/2000/svg">
<path d="M22.5 3.09375C20.2969 1.73437 17.7656 0.9375 15 0.9375V3.09375H22.5Z" fill="#ED4C5C"/>
<path d="M15 5.25H25.125C24.3281 4.45312 23.4375 3.70312 22.5 3.09375H15V5.25Z" fill="white"/>
<path d="M15 7.40625H26.8594C26.3438 6.60938 25.7812 5.90625 25.1719 5.25H15V7.40625Z" fill="#ED4C5C"/>
<path d="M15 9.5625H27.9844C27.6562 8.8125 27.2812 8.0625 26.8594 7.40625H15V9.5625Z" fill="white"/>
<path d="M15 11.7188H28.6875C28.5 10.9688 28.2656 10.2656 27.9844 9.5625H15V11.7188Z" fill="#ED4C5C"/>
<path d="M15 13.9219H29.0156C28.9688 13.1719 28.8281 12.4687 28.6875 11.7656H15V13.9219Z" fill="white"/>
<path d="M29.0156 13.9219H15V15H0.9375C0.9375 15.375 0.9375 15.7031 0.984375 16.0781H29.0156C29.0625 15.7031 29.0625 15.375 29.0625 15C29.0625 14.625 29.0625 14.25 29.0156 13.9219Z" fill="#ED4C5C"/>
<path d="M1.3125 18.2344H28.6875C28.875 17.5313 28.9688 16.8281 29.0156 16.0781H0.984375C1.03125 16.7812 1.125 17.5313 1.3125 18.2344Z" fill="white"/>
<path d="M2.01563 20.3906H27.9844C28.2656 19.6875 28.5 18.9844 28.6875 18.2344H1.3125C1.5 18.9844 1.73438 19.6875 2.01563 20.3906Z" fill="#ED4C5C"/>
<path d="M3.14062 22.5469H26.8594C27.2813 21.8437 27.6563 21.1406 27.9844 20.3906H2.01562C2.34375 21.1406 2.71875 21.8437 3.14062 22.5469Z" fill="white"/>
<path d="M4.82813 24.7031H25.1719C25.7812 24.0469 26.3906 23.2969 26.8594 22.5469H3.14062C3.60937 23.3437 4.21875 24.0469 4.82813 24.7031Z" fill="#ED4C5C"/>
<path d="M7.45312 26.8594H22.5469C23.5312 26.25 24.375 25.5 25.1719 24.7031H4.82812C5.625 25.5469 6.51562 26.25 7.45312 26.8594Z" fill="white"/>
<path d="M15 29.0625C17.7656 29.0625 20.3437 28.2656 22.5469 26.8594H7.45312C9.65625 28.2656 12.2344 29.0625 15 29.0625Z" fill="#ED4C5C"/>
<path d="M7.5 3.09375C6.51562 3.70312 5.625 4.45312 4.82812 5.25C4.17188 5.90625 3.60938 6.65625 3.14062 7.40625C2.71875 8.10938 2.29688 8.8125 2.01563 9.5625C1.73438 10.2656 1.5 10.9688 1.3125 11.7188C1.125 12.4219 1.03125 13.125 0.984375 13.875C0.9375 14.25 0.9375 14.625 0.9375 15H15V0.9375C12.2344 0.9375 9.70312 1.73437 7.5 3.09375Z" fill="#428BC1"/>
<path d="M11.7188 1.40625L11.9531 2.10938H12.6563L12.0938 2.57812L12.2813 3.28125L11.7188 2.85938L11.1562 3.28125L11.3438 2.57812L10.7813 2.10938H11.4844L11.7188 1.40625ZM13.5938 4.21875L13.8281 4.92188H14.5313L13.9688 5.39062L14.1563 6.09375L13.5938 5.67188L13.0313 6.09375L13.2188 5.39062L12.6563 4.92188H13.3594L13.5938 4.21875ZM9.84375 4.21875L10.0781 4.92188H10.7813L10.2188 5.39062L10.4063 6.09375L9.84375 5.67188L9.28125 6.09375L9.46875 5.39062L8.90625 4.92188H9.60938L9.84375 4.21875ZM11.7188 7.03125L11.9531 7.73438H12.6563L12.0938 8.20312L12.2813 8.90625L11.7188 8.48438L11.1562 8.90625L11.3438 8.20312L10.7813 7.73438H11.4844L11.7188 7.03125ZM7.96875 7.03125L8.20313 7.73438H8.90625L8.34375 8.20312L8.53125 8.90625L7.96875 8.48438L7.40625 8.90625L7.59375 8.20312L7.03125 7.73438H7.73438L7.96875 7.03125ZM4.21875 7.03125L4.45313 7.73438H5.15625L4.59375 8.20312L4.78125 8.90625L4.21875 8.48438L3.65625 8.90625L3.84375 8.20312L3.28125 7.73438H3.98438L4.21875 7.03125ZM13.5938 9.84375L13.8281 10.5469H14.5313L13.9688 11.0156L14.1563 11.7188L13.5938 11.2969L13.0313 11.7188L13.2188 11.0156L12.6563 10.5469H13.3594L13.5938 9.84375ZM9.84375 9.84375L10.0781 10.5469H10.7813L10.2188 11.0156L10.4063 11.7188L9.84375 11.2969L9.28125 11.7188L9.46875 11.0156L8.90625 10.5469H9.60938L9.84375 9.84375ZM6.09375 9.84375L6.32813 10.5469H7.03125L6.46875 11.0156L6.65625 11.7188L6.09375 11.2969L5.53125 11.7188L5.71875 11.0156L5.15625 10.5469H5.85938L6.09375 9.84375ZM11.7188 12.6562L11.9531 13.3594H12.6563L12.0938 13.8281L12.2813 14.5312L11.7188 14.1094L11.1562 14.5312L11.3438 13.8281L10.7813 13.3594H11.4844L11.7188 12.6562ZM7.96875 12.6562L8.20313 13.3594H8.90625L8.34375 13.8281L8.53125 14.5312L7.96875 14.1094L7.40625 14.5312L7.59375 13.8281L7.03125 13.3594H7.73438L7.96875 12.6562ZM4.21875 12.6562L4.45313 13.3594H5.15625L4.59375 13.8281L4.78125 14.5312L4.21875 14.1094L3.65625 14.5312L3.84375 13.8281L3.28125 13.3594H3.98438L4.21875 12.6562ZM5.53125 6.09375L6.09375 5.67188L6.65625 6.09375L6.42188 5.39062L6.98438 4.92188H6.28125L6.09375 4.21875L5.85938 4.92188H5.20313L5.76562 5.34375L5.53125 6.09375ZM1.78125 11.7188L2.34375 11.2969L2.90625 11.7188L2.67187 11.0156L3.23438 10.5469H2.57812L2.34375 9.84375L2.10938 10.5469H1.64062C1.64062 10.5938 1.59375 10.6406 1.59375 10.6875L1.96875 10.9688L1.78125 11.7188Z" fill="white"/>
</svg>
