<svg width="75" height="22" viewBox="0 0 75 22" fill="none" xmlns="http://www.w3.org/2000/svg">
<rect width="75" height="22" rx="5" fill="#FFCC30"/>
<path d="M31.5248 7.5V12.2L26.4148 7.15V14.5H27.5748V9.8L32.6848 14.85V7.5H31.5248ZM34.967 14.5H38.497V13.46H34.967V14.5ZM34.967 8.54H38.497V7.5H34.967V8.54ZM34.967 11.26H38.297V10.24H34.967V11.26ZM34.237 7.5V14.5H35.397V7.5H34.237ZM46.2799 12.19L44.2699 7.15L42.2799 12.19L40.6199 7.5H39.2499L42.1099 14.87L44.2699 9.92L46.4299 14.87L49.2899 7.5H47.9199L46.2799 12.19Z" fill="#454545"/>
</svg>
