<svg width="30" height="30" viewBox="0 0 30 30" fill="none" xmlns="http://www.w3.org/2000/svg">
<path d="M19.3031 20.625L14.0625 15.3844V6.5625H15.9375V14.6062L20.625 19.3031L19.3031 20.625Z" fill="#545454"/>
<path d="M15 1.875C13.2515 1.87525 11.5209 2.22635 9.91053 2.90753C8.30019 3.5887 6.84292 4.58609 5.625 5.84063V1.875H3.75V9.375H11.25V7.5H6.6375C8.39628 5.54559 10.784 4.26893 13.3861 3.89175C15.9882 3.51458 18.6402 4.0607 20.8815 5.43529C23.1228 6.80987 24.8119 8.92607 25.6554 11.4164C26.4988 13.9067 26.4434 16.6137 25.4988 19.0674C24.5541 21.5211 22.7798 23.5664 20.4841 24.8481C18.1884 26.1299 15.5163 26.567 12.9319 26.0837C10.3474 25.6003 8.01389 24.227 6.33656 22.2023C4.65923 20.1775 3.74406 17.6293 3.75 15H1.875C1.875 17.5959 2.64477 20.1335 4.08696 22.2919C5.52916 24.4503 7.579 26.1325 9.97728 27.1259C12.3756 28.1193 15.0146 28.3792 17.5606 27.8728C20.1066 27.3664 22.4452 26.1163 24.2808 24.2808C26.1163 22.4452 27.3664 20.1066 27.8728 17.5606C28.3792 15.0146 28.1193 12.3756 27.1259 9.97728C26.1325 7.579 24.4503 5.52916 22.2919 4.08696C20.1335 2.64477 17.5959 1.875 15 1.875Z" fill="#545454"/>
</svg>
