<svg width="10" height="21" viewBox="0 0 10 21" fill="none" xmlns="http://www.w3.org/2000/svg">
<path d="M1.65923 0.962868C1.87269 0.962139 2.0836 1.00933 2.27646 1.10096C2.46932 1.19259 2.63924 1.32634 2.77372 1.49237L9.67496 10.0789C9.88511 10.335 10 10.6562 10 10.9877C10 11.3192 9.88511 11.6404 9.67496 11.8964L2.53082 20.483C2.28829 20.7753 1.93978 20.9591 1.56196 20.9939C1.18414 21.0288 0.807959 20.912 0.516168 20.6691C0.224377 20.4261 0.0408812 20.0771 0.0060463 19.6987C-0.0287876 19.3202 0.0878925 18.9435 0.33042 18.6512L6.71728 10.9805L0.544744 3.30986C0.370023 3.0998 0.259036 2.84401 0.224916 2.57274C0.190797 2.30148 0.234972 2.0261 0.352216 1.7792C0.46946 1.5323 0.654864 1.3242 0.886492 1.17953C1.11812 1.03486 1.38628 0.959673 1.65923 0.962868Z" fill="white"/>
</svg>
