<svg width="75" height="22" viewBox="0 0 75 22" fill="none" xmlns="http://www.w3.org/2000/svg">
<rect width="75" height="22" rx="5" fill="#FDAE22"/>
<path d="M17.2212 7V11.7C17.2212 12.0867 17.2812 12.4333 17.4012 12.74C17.5212 13.04 17.6945 13.2967 17.9212 13.51C18.1545 13.7233 18.4279 13.8867 18.7412 14C19.0545 14.1133 19.3979 14.17 19.7712 14.17C20.1445 14.17 20.4879 14.1133 20.8012 14C21.1145 13.8867 21.3845 13.7233 21.6112 13.51C21.8379 13.2967 22.0112 13.04 22.1312 12.74C22.2579 12.4333 22.3212 12.0867 22.3212 11.7V7H21.1412V11.65C21.1412 12.0833 21.0245 12.4333 20.7912 12.7C20.5579 12.96 20.2179 13.09 19.7712 13.09C19.3179 13.09 18.9745 12.96 18.7412 12.7C18.5145 12.4333 18.4012 12.0833 18.4012 11.65V7H17.2212ZM23.8337 7V14H25.0137V7H23.8337ZM24.5337 8.04H25.9437C26.3504 8.04 26.677 8.13667 26.9237 8.33C27.1704 8.51667 27.2937 8.79667 27.2937 9.17C27.2937 9.54333 27.1704 9.82667 26.9237 10.02C26.677 10.2133 26.3504 10.31 25.9437 10.31H24.5337V11.35H25.9437C26.4504 11.35 26.8904 11.2633 27.2637 11.09C27.6437 10.91 27.937 10.6567 28.1437 10.33C28.3504 10.0033 28.4537 9.61667 28.4537 9.17C28.4537 8.72333 28.3504 8.34 28.1437 8.02C27.937 7.69333 27.6437 7.44333 27.2637 7.27C26.8904 7.09 26.4504 7 25.9437 7H24.5337V8.04ZM29.615 7V14H30.815V7H29.615ZM31.875 14C32.5883 14 33.215 13.8567 33.755 13.57C34.295 13.2767 34.715 12.87 35.015 12.35C35.3216 11.8233 35.475 11.2067 35.475 10.5C35.475 9.79333 35.3216 9.18 35.015 8.66C34.715 8.13333 34.295 7.72667 33.755 7.44C33.215 7.14667 32.5883 7 31.875 7H30.345V8.11H31.845C32.1916 8.11 32.5116 8.16 32.805 8.26C33.0983 8.36 33.3516 8.51 33.565 8.71C33.785 8.91 33.955 9.16 34.075 9.46C34.2016 9.76 34.265 10.1067 34.265 10.5C34.265 10.8933 34.2016 11.24 34.075 11.54C33.955 11.84 33.785 12.09 33.565 12.29C33.3516 12.49 33.0983 12.64 32.805 12.74C32.5116 12.84 32.1916 12.89 31.845 12.89H30.345V14H31.875ZM37.1639 12.2H40.8639L40.6339 11.2H37.3839L37.1639 12.2ZM38.9939 8.98L40.1039 11.58L40.1339 11.87L41.0839 14H42.4139L38.9939 6.61L35.5739 14H36.9039L37.8739 11.81L37.8939 11.55L38.9939 8.98ZM41.8251 8.09H43.6651V14H44.8551V8.09H46.7051V7H41.8251V8.09ZM48.2942 14H51.8242V12.96H48.2942V14ZM48.2942 8.04H51.8242V7H48.2942V8.04ZM48.2942 10.76H51.6242V9.74H48.2942V10.76ZM47.5642 7V14H48.7242V7H47.5642ZM53.2771 7V14H54.4771V7H53.2771ZM55.5371 14C56.2504 14 56.8771 13.8567 57.4171 13.57C57.9571 13.2767 58.3771 12.87 58.6771 12.35C58.9837 11.8233 59.1371 11.2067 59.1371 10.5C59.1371 9.79333 58.9837 9.18 58.6771 8.66C58.3771 8.13333 57.9571 7.72667 57.4171 7.44C56.8771 7.14667 56.2504 7 55.5371 7H54.0071V8.11H55.5071C55.8537 8.11 56.1737 8.16 56.4671 8.26C56.7604 8.36 57.0137 8.51 57.2271 8.71C57.4471 8.91 57.6171 9.16 57.7371 9.46C57.8637 9.76 57.9271 10.1067 57.9271 10.5C57.9271 10.8933 57.8637 11.24 57.7371 11.54C57.6171 11.84 57.4471 12.09 57.2271 12.29C57.0137 12.49 56.7604 12.64 56.4671 12.74C56.1737 12.84 55.8537 12.89 55.5071 12.89H54.0071V14H55.5371Z" fill="white"/>
</svg>
