<svg width="35" height="35" viewBox="0 0 35 35" fill="none" xmlns="http://www.w3.org/2000/svg">
<path d="M23.9121 13.8359C24.0114 13.9422 24.0654 14.0829 24.0629 14.2284C24.0603 14.3738 24.0014 14.5125 23.8984 14.6152L15.8731 22.2715C15.7677 22.3661 15.6318 22.4195 15.4902 22.4219C15.3524 22.4214 15.2201 22.3675 15.1211 22.2715L11.1016 18.4434C11.0495 18.3931 11.0078 18.3331 10.979 18.2667C10.9501 18.2003 10.9346 18.1289 10.9333 18.0565C10.9321 17.9842 10.9451 17.9123 10.9716 17.8449C10.9981 17.7776 11.0376 17.7161 11.0879 17.6641C11.1382 17.612 11.1982 17.5703 11.2646 17.5415C11.3309 17.5126 11.4023 17.4971 11.4747 17.4958C11.5471 17.4946 11.619 17.5076 11.6863 17.5341C11.7537 17.5606 11.8151 17.6001 11.8672 17.6504L15.4902 21.123L23.1328 13.8223C23.2391 13.723 23.3798 13.6689 23.5252 13.6715C23.6706 13.674 23.8094 13.733 23.9121 13.8359ZM31.1719 17.5C31.1719 20.204 30.37 22.8474 28.8678 25.0957C27.3655 27.344 25.2302 29.0964 22.732 30.1312C20.2338 31.166 17.4848 31.4367 14.8328 30.9092C12.1807 30.3816 9.74458 29.0795 7.83253 27.1675C5.92048 25.2554 4.61836 22.8193 4.09083 20.1673C3.5633 17.5152 3.83405 14.7662 4.86884 12.268C5.90363 9.76979 7.65599 7.63454 9.90432 6.13225C12.1526 4.62997 14.796 3.82813 17.5 3.82812C21.1238 3.83535 24.5971 5.2781 27.1595 7.84051C29.7219 10.4029 31.1647 13.8762 31.1719 17.5ZM30.0781 17.5C30.0781 15.0123 29.3404 12.5804 27.9583 10.512C26.5762 8.44351 24.6118 6.83134 22.3134 5.87933C20.0151 4.92732 17.4861 4.67823 15.0461 5.16356C12.6062 5.64889 10.365 6.84684 8.60593 8.60592C6.84685 10.365 5.6489 12.6062 5.16357 15.0461C4.67824 17.486 4.92733 20.0151 5.87933 22.3134C6.83134 24.6118 8.44351 26.5762 10.512 27.9583C12.5804 29.3404 15.0123 30.0781 17.5 30.0781C20.8348 30.0745 24.032 28.7482 26.3901 26.3901C28.7482 24.032 30.0745 20.8348 30.0781 17.5Z" fill="white"/>
</svg>
