<svg width="15" height="15" viewBox="0 0 15 15" fill="none" xmlns="http://www.w3.org/2000/svg">
<path d="M5.49427 7.85403L5.84927 7.5L5.49427 7.14597L0.820668 2.48499C0.612389 2.26845 0.497433 1.9795 0.500044 1.67989C0.502666 1.37897 0.623684 1.09085 0.837462 0.877646C1.05128 0.664402 1.34081 0.543205 1.64376 0.540579C1.94539 0.537965 2.23578 0.653104 2.453 0.860896L7.1266 5.52187L7.47968 5.87399L7.83275 5.52187L12.5097 0.857555L12.5098 0.857608L12.5158 0.851366C12.6222 0.741533 12.7495 0.65385 12.8903 0.593504C13.0312 0.533157 13.1828 0.501373 13.3362 0.500044C13.4895 0.498714 13.6416 0.527867 13.7835 0.585767C13.9254 0.643665 14.0543 0.729131 14.1625 0.837112C14.2708 0.94509 14.3564 1.07341 14.4143 1.21456C14.4722 1.35571 14.5013 1.50689 14.5 1.65931C14.4986 1.81172 14.4669 1.96239 14.4065 2.10252C14.3462 2.24265 14.2584 2.36948 14.1482 2.47557L14.1482 2.47551L14.142 2.48165L9.46508 7.14597L9.11009 7.5L9.46508 7.85403L14.142 12.5183L14.142 12.5184L14.1482 12.5244C14.2584 12.6305 14.3462 12.7573 14.4065 12.8975C14.4669 13.0376 14.4986 13.1883 14.5 13.3407C14.5013 13.4931 14.4722 13.6443 14.4143 13.7854C14.3564 13.9266 14.2708 14.0549 14.1625 14.1629C14.0543 14.2709 13.9254 14.3563 13.7835 14.4142C13.6416 14.4721 13.4896 14.5013 13.3362 14.5C13.1828 14.4986 13.0312 14.4668 12.8903 14.4065C12.7495 14.3461 12.6222 14.2585 12.5158 14.1486L12.5159 14.1486L12.5097 14.1424L7.83275 9.47813L7.47968 9.12601L7.1266 9.47813L2.45299 14.1391C2.23578 14.3469 1.94539 14.462 1.64376 14.4594C1.34081 14.4568 1.05129 14.3356 0.837463 14.1224C0.623684 13.9092 0.502666 13.621 0.500044 13.3201C0.497433 13.0205 0.61239 12.7316 0.820669 12.515L5.49427 7.85403Z" fill="#DDDDDD" stroke="#DDDDDD"/>
</svg>
