<svg width="9" height="18" viewBox="0 0 9 18" fill="none" xmlns="http://www.w3.org/2000/svg">
<path d="M7.46867 0.954504C7.29076 0.953899 7.11499 0.993162 6.95426 1.06941C6.79352 1.14565 6.65191 1.25695 6.53983 1.3951L0.788229 8.53996C0.613082 8.75303 0.517334 9.0203 0.517334 9.29612C0.517334 9.57194 0.613082 9.83921 0.788229 10.0523L6.74227 17.1971C6.9444 17.4403 7.23485 17.5932 7.54973 17.6223C7.86461 17.6513 8.17813 17.5541 8.42131 17.3519C8.6645 17.1498 8.81742 16.8594 8.84646 16.5445C8.87549 16.2296 8.77824 15.9161 8.57612 15.6729L3.2532 9.29017L8.3975 2.90743C8.54311 2.73264 8.63561 2.51979 8.66405 2.29408C8.69248 2.06836 8.65567 1.83922 8.55795 1.63377C8.46024 1.42832 8.30572 1.25517 8.11268 1.13479C7.91964 1.01441 7.69615 0.951845 7.46867 0.954504Z" fill="#888888"/>
</svg>
