<svg width="18" height="18" viewBox="0 0 18 18" fill="none" xmlns="http://www.w3.org/2000/svg">
<path d="M13.0922 6.38511C13.1555 6.45293 13.19 6.5427 13.1884 6.63547C13.1867 6.72825 13.1491 6.81676 13.0834 6.88231L7.96313 11.7671C7.89593 11.8274 7.80921 11.8615 7.7189 11.863C7.63094 11.8627 7.54653 11.8283 7.48338 11.7671L4.91887 9.3247C4.88565 9.29263 4.85907 9.25433 4.84065 9.21198C4.82224 9.16964 4.81234 9.12408 4.81153 9.07791C4.81072 9.03174 4.81901 8.98586 4.83593 8.9429C4.85285 8.89993 4.87807 8.86072 4.91014 8.8275C4.94222 8.79428 4.98052 8.7677 5.02287 8.74929C5.06521 8.73087 5.11077 8.72098 5.15694 8.72017C5.20311 8.71936 5.24899 8.72765 5.29195 8.74457C5.33492 8.76149 5.37413 8.7867 5.40735 8.81878L7.7189 11.0344L12.595 6.37639C12.6628 6.31306 12.7525 6.27856 12.8453 6.28019C12.9381 6.28182 13.0266 6.31944 13.0922 6.38511ZM17.724 8.72283C17.724 10.448 17.2124 12.1345 16.2539 13.569C15.2954 15.0034 13.9331 16.1215 12.3392 16.7817C10.7453 17.4419 8.99147 17.6146 7.29941 17.278C5.60735 16.9415 4.05309 16.1107 2.83318 14.8908C1.61327 13.6709 0.782503 12.1166 0.445931 10.4246C0.109359 8.7325 0.2821 6.97863 0.94231 5.38475C1.60252 3.79086 2.72055 2.42854 4.15501 1.47006C5.58947 0.511585 7.27594 0 9.00115 0C11.3132 0.00461023 13.5292 0.9251 15.164 2.55995C16.7989 4.1948 17.7194 6.41081 17.724 8.72283ZM17.0261 8.72283C17.0261 7.13563 16.5555 5.58408 15.6737 4.26438C14.7919 2.94467 13.5386 1.91609 12.0722 1.30869C10.6058 0.7013 8.99225 0.542378 7.43555 0.852024C5.87885 1.16167 4.44893 1.92598 3.32662 3.04829C2.2043 4.17061 1.43999 5.60053 1.13035 7.15723C0.820702 8.71392 0.979624 10.3275 1.58702 11.7939C2.19441 13.2602 3.22299 14.5136 4.5427 15.3954C5.8624 16.2772 7.41396 16.7478 9.00115 16.7478C11.1288 16.7455 13.1687 15.8993 14.6731 14.3948C16.1776 12.8903 17.0238 10.8505 17.0261 8.72283Z" fill="#55AEF0"/>
</svg>
