<svg width="12" height="13" viewBox="0 0 12 13" fill="none" xmlns="http://www.w3.org/2000/svg">
<path fill-rule="evenodd" clip-rule="evenodd" d="M11.03 1.05855C11.0733 1.10176 11.1077 1.1531 11.1311 1.20962C11.1546 1.26614 11.1666 1.32673 11.1666 1.38792C11.1666 1.44912 11.1546 1.50971 11.1311 1.56623C11.1077 1.62275 11.0733 1.67408 11.03 1.7173L0.795179 11.9521C0.707824 12.0394 0.589344 12.0885 0.465805 12.0885C0.342266 12.0885 0.223786 12.0394 0.136431 11.9521C0.0490756 11.8647 0 11.7462 0 11.6227C0 11.4992 0.0490756 11.3807 0.136431 11.2933L10.3712 1.05855C10.4144 1.01523 10.4658 0.980853 10.5223 0.9574C10.5788 0.933947 10.6394 0.921875 10.7006 0.921875C10.7618 0.921875 10.8224 0.933947 10.8789 0.9574C10.9354 0.980853 10.9867 1.01523 11.03 1.05855Z" fill="#545454"/>
<path fill-rule="evenodd" clip-rule="evenodd" d="M0.136675 1.05855C0.093351 1.10176 0.0589782 1.1531 0.0355252 1.20962C0.0120723 1.26614 0 1.32673 0 1.38792C0 1.44912 0.0120723 1.50971 0.0355252 1.56623C0.0589782 1.62275 0.093351 1.67408 0.136675 1.7173L10.3715 11.9521C10.4588 12.0394 10.5773 12.0885 10.7008 12.0885C10.8244 12.0885 10.9429 12.0394 11.0302 11.9521C11.1176 11.8647 11.1666 11.7462 11.1666 11.6227C11.1666 11.4992 11.1176 11.3807 11.0302 11.2933L0.795423 1.05855C0.752208 1.01523 0.700871 0.980853 0.644352 0.9574C0.587832 0.933947 0.527241 0.921875 0.466049 0.921875C0.404857 0.921875 0.344266 0.933947 0.287746 0.9574C0.231227 0.980853 0.17989 1.01523 0.136675 1.05855Z" fill="#545454"/>
</svg>
