<svg width="26" height="33" viewBox="0 0 26 33" fill="none" xmlns="http://www.w3.org/2000/svg">
<path fill-rule="evenodd" clip-rule="evenodd" d="M25.2381 9.50272V28.8383C25.2381 29.9179 24.8092 30.9533 24.0458 31.7167C23.2824 32.4801 22.247 32.909 21.1674 32.909H19.1321V30.8736H21.1674C21.7072 30.8736 22.2249 30.6592 22.6066 30.2775C22.9883 29.8958 23.2028 29.3781 23.2028 28.8383V9.50272H19.1321C18.3224 9.50272 17.5459 9.18106 16.9733 8.60852C16.4008 8.03597 16.0791 7.25943 16.0791 6.44973V2.37908H4.88483C4.34503 2.37908 3.82734 2.59351 3.44564 2.97521C3.06394 3.35691 2.84951 3.8746 2.84951 4.4144V22.7323H0.814182V4.4144C0.814182 3.3348 1.24305 2.29941 2.00645 1.53602C2.76984 0.772621 3.80523 0.34375 4.88483 0.34375L16.0791 0.34375L25.2381 9.50272ZM16.4048 26.054C16.5595 26.3654 16.6551 26.6992 16.6897 27.0554H15.1103C15.0735 26.8765 15.0067 26.7052 14.9129 26.5486C14.8226 26.3993 14.7053 26.2681 14.5669 26.1619C14.4239 26.0464 14.2602 25.9593 14.0845 25.9054C13.8877 25.8436 13.6823 25.8134 13.4759 25.8159C12.8959 25.8159 12.444 26.0194 12.1225 26.4305C11.8049 26.8396 11.6462 27.4156 11.6462 28.1606V29.1741C11.6462 29.6504 11.7113 30.0676 11.8436 30.4259C11.9619 30.7612 12.1773 31.0538 12.4624 31.2665C12.7741 31.4749 13.144 31.5789 13.5187 31.5636C13.84 31.5754 14.1594 31.5084 14.4488 31.3682C14.6812 31.2461 14.8735 31.0596 15.0024 30.8309C15.1246 30.607 15.1877 30.3628 15.1877 30.0921V29.5731H13.5146V28.3722H16.7223V29.9964C16.7223 30.3892 16.6572 30.7637 16.5249 31.1158C16.3946 31.4654 16.1913 31.7832 15.9285 32.048C15.6425 32.3305 15.2988 32.5478 14.921 32.6851C14.5201 32.8357 14.0458 32.911 13.5024 32.911C12.9789 32.9219 12.4584 32.8306 11.9698 32.6423C11.5545 32.4725 11.1834 32.2101 10.885 31.875C10.5869 31.532 10.3649 31.1296 10.2337 30.6945C10.0858 30.2029 10.0137 29.6916 10.02 29.1782V28.1483C10.02 27.4116 10.1543 26.7684 10.427 26.2148C10.6998 25.6632 11.0946 25.2338 11.6116 24.9264C12.1326 24.617 12.7615 24.4624 13.4963 24.4624C13.9807 24.4624 14.4122 24.5295 14.7908 24.6659C15.1714 24.8002 15.497 24.9875 15.7677 25.2256C16.0384 25.4637 16.2521 25.7405 16.4068 26.054H16.4048ZM-3.25647 30.4381C-3.25647 30.7719 -3.20152 31.0874 -3.08957 31.3845C-2.97763 31.6837 -2.81277 31.9483 -2.59499 32.1783C-2.3711 32.4083 -2.09633 32.5894 -1.76661 32.7217C-1.43282 32.8479 -1.04611 32.911 -0.608511 32.911C0.246326 32.911 0.913913 32.6769 1.39425 32.2088C1.87866 31.7407 2.1229 31.0568 2.1229 30.1633V24.617H0.512954V30.204C0.512954 30.6152 0.419329 30.9306 0.232079 31.1525C0.0448287 31.3764 -0.242152 31.4863 -0.626829 31.4863C-0.811867 31.495 -0.995775 31.453 -1.15865 31.3647C-1.32152 31.2765 -1.45715 31.1454 -1.55087 30.9856C-1.64471 30.8174 -1.69574 30.6286 -1.69945 30.436H-3.25647V30.4381ZM6.75733 24.617H3.50488V32.7584H5.11483V30.0249H6.74919C7.33333 30.0249 7.82995 29.9089 8.23905 29.6748C8.65222 29.4347 8.9677 29.1131 9.18141 28.7081C9.40122 28.299 9.50909 27.839 9.50909 27.3301C9.50909 26.8213 9.40326 26.3634 9.18751 25.9522C8.97494 25.5455 8.64996 25.2085 8.25126 24.9814C7.8442 24.7371 7.34961 24.617 6.7614 24.617H6.75733ZM7.86862 27.3301C7.8763 27.599 7.81684 27.8655 7.69562 28.1056C7.58684 28.3134 7.41805 28.4836 7.21121 28.5941C6.97427 28.7113 6.7122 28.7686 6.44796 28.761H5.10872V25.8993H6.45203C6.89573 25.8993 7.24378 26.0214 7.49412 26.2697C7.74447 26.514 7.87066 26.8702 7.87066 27.3301H7.86862Z" fill="#454545"/>
</svg>
