<svg width="30" height="30" viewBox="0 0 30 30" fill="none" xmlns="http://www.w3.org/2000/svg">
<path d="M19.8958 3.11705C19.8118 3.06272 19.7179 3.02573 19.6194 3.00825C19.521 2.99077 19.42 2.99316 19.3225 3.01527C19.225 3.03738 19.1328 3.07876 19.0516 3.13699C18.9703 3.19522 18.9014 3.26912 18.8491 3.35434C18.7968 3.43956 18.7621 3.53438 18.7469 3.63323C18.7318 3.73207 18.7366 3.83294 18.761 3.9299C18.7854 4.02687 18.829 4.11797 18.8892 4.19785C18.9493 4.27773 19.0248 4.34478 19.1113 4.39505C22.4983 6.47105 25.2913 9.51605 25.5013 15.03C25.5133 15.2255 25.6014 15.4085 25.7466 15.54C25.8918 15.6714 26.0827 15.7408 26.2784 15.7333C26.4741 15.7259 26.6591 15.6422 26.7939 15.5001C26.9287 15.3581 27.0026 15.1689 26.9998 14.973C26.7643 8.82455 23.5828 5.37605 19.8958 3.11705ZM18.1288 7.09205C18.2402 6.92741 18.4125 6.81376 18.6077 6.77607C18.8029 6.73838 19.0051 6.77974 19.1698 6.89105C21.5803 8.51855 23.2423 10.848 23.5018 13.527C23.5258 13.767 23.5378 14.0115 23.5378 14.2575C23.5378 14.4565 23.4588 14.6472 23.3181 14.7879C23.1775 14.9285 22.9867 15.0075 22.7878 15.0075C22.5889 15.0075 22.3981 14.9285 22.2574 14.7879C22.1168 14.6472 22.0378 14.4565 22.0378 14.2575C22.0378 14.0595 22.0273 13.8645 22.0078 13.6725C21.8038 11.5455 20.4718 9.58055 18.3298 8.13305C18.1651 8.0216 18.0515 7.84935 18.0138 7.65415C17.9761 7.45895 18.0175 7.25677 18.1288 7.09205ZM7.61977 8.15705C6.69141 8.57032 5.85356 9.16242 5.15406 9.89955C4.45456 10.6367 3.90712 11.5044 3.54301 12.4531C3.1789 13.4018 3.00525 14.413 3.03197 15.4288C3.0587 16.4447 3.28528 17.4453 3.69877 18.3735L5.53327 22.497L5.66827 25.977C5.67547 26.1606 5.72751 26.3396 5.81984 26.4984C5.91217 26.6572 6.04199 26.791 6.19796 26.8881C6.35392 26.9852 6.53128 27.0426 6.71455 27.0553C6.89781 27.068 7.0814 27.0357 7.24928 26.961L21.8398 20.466C22.0078 20.3913 22.1549 20.2765 22.2683 20.1318C22.3817 19.987 22.4578 19.8166 22.4901 19.6356C22.5224 19.4545 22.5098 19.2684 22.4534 19.0933C22.397 18.9183 22.2986 18.7597 22.1668 18.6315L19.6708 16.203L17.8348 12.0795C17.0001 10.205 15.455 8.7388 13.5393 8.00347C11.6237 7.26815 9.49433 7.32393 7.61977 8.15855V8.15705ZM5.06977 17.763C4.42887 16.2574 4.40537 14.5602 5.00434 13.0373C5.60331 11.5145 6.77676 10.2881 8.27167 9.62251C9.76657 8.95692 11.4632 8.90551 12.9956 9.47934C14.5281 10.0532 15.7737 11.2063 16.4638 12.69L18.4168 17.0775L20.7238 19.32L7.14577 25.365L7.02128 22.1505L5.06827 17.763H5.06977ZM16.0168 26.814C15.5336 27.0287 14.9899 27.0652 14.4824 26.9169C13.9749 26.7686 13.5363 26.4451 13.2448 26.004L17.2723 24.213C17.4045 24.725 17.351 25.2674 17.1211 25.7436C16.8912 26.2198 16.4999 26.5991 16.0168 26.814Z" fill="#454545"/>
</svg>
