<svg width="17" height="8" viewBox="0 0 17 8" fill="none" xmlns="http://www.w3.org/2000/svg">
<path d="M0.000234604 6.67262C-0.000347137 6.50185 0.0374031 6.33312 0.110709 6.17883C0.184016 6.02454 0.291017 5.88861 0.423849 5.78103L7.29325 0.260033C7.49811 0.0919094 7.75507 0 8.02026 0C8.28545 0 8.54241 0.0919094 8.74727 0.260033L15.6167 5.97535C15.8505 6.16937 15.9975 6.44818 16.0254 6.75043C16.0533 7.05269 15.9598 7.35363 15.7655 7.58707C15.5712 7.8205 15.2919 7.9673 14.9892 7.99516C14.6864 8.02303 14.385 7.92969 14.1512 7.73567L8.01454 2.62617L1.87787 7.56421C1.70982 7.70398 1.50518 7.79277 1.28816 7.82007C1.07115 7.84736 0.850842 7.81202 0.653316 7.71823C0.455788 7.62443 0.289307 7.47611 0.173568 7.29081C0.0578299 7.1055 -0.00232124 6.89098 0.000234604 6.67262Z" fill="#454545"/>
</svg>
