<svg width="64" height="66" viewBox="0 0 64 66" fill="none" xmlns="http://www.w3.org/2000/svg">
<rect x="23.7739" y="37.3965" width="5" height="11" rx="2" transform="rotate(44.282 23.7739 37.3965)" fill="#665E66"/>
<rect x="23.7739" y="37.3965" width="5" height="11" rx="2" transform="rotate(44.282 23.7739 37.3965)" fill="#665E66"/>
<rect x="23.7739" y="37.3965" width="5" height="11" rx="2" transform="rotate(44.282 23.7739 37.3965)" fill="#665E66"/>
<rect x="23.7739" y="37.3965" width="5" height="11" rx="2" transform="rotate(44.282 23.7739 37.3965)" fill="#665E66"/>
<path d="M22.3775 38.8283C23.1487 38.0375 24.415 38.0217 25.2058 38.7929L25.9217 39.4911L18.2416 47.3661L17.5257 46.6679C16.7349 45.8967 16.719 44.6305 17.4902 43.8397L22.3775 38.8283Z" fill="#544F57"/>
<rect x="16.0584" y="42.4434" width="9" height="23" rx="2" transform="rotate(44.282 16.0584 42.4434)" fill="#CE775F"/>
<rect x="16.0584" y="42.4434" width="9" height="23" rx="2" transform="rotate(44.282 16.0584 42.4434)" fill="#CE775F"/>
<rect x="16.0584" y="42.4434" width="9" height="23" rx="2" transform="rotate(44.282 16.0584 42.4434)" fill="#CE775F"/>
<rect x="16.0584" y="42.4434" width="9" height="23" rx="2" transform="rotate(44.282 16.0584 42.4434)" fill="#CE775F"/>
<path d="M14.662 43.8752C15.4332 43.0844 16.6995 43.0685 17.4902 43.8397L19.638 45.9343L3.5796 62.4003L1.43187 60.3057C0.641091 59.5345 0.625222 58.2683 1.39642 57.4775L14.662 43.8752Z" fill="#C0694E"/>
<circle cx="40.5003" cy="23.5" r="23.5" fill="#756E78"/>
<ellipse cx="43.0003" cy="23.5" rx="21" ry="22.5" fill="#8B818E"/>
<circle cx="40.5003" cy="23.5" r="19.5" fill="#DBEAFF"/>
<ellipse cx="43.0003" cy="23.5" rx="17" ry="18.5" fill="#EDF4FF"/>
</svg>
