<svg width="32" height="32" viewBox="0 0 32 32" fill="none" xmlns="http://www.w3.org/2000/svg">
<path d="M23.3281 11.8105C23.4416 11.932 23.5034 12.0928 23.5004 12.259C23.4975 12.4252 23.4301 12.5837 23.3125 12.7012L14.1406 21.4512C14.0203 21.5593 13.8649 21.6203 13.7031 21.623C13.5456 21.6224 13.3944 21.5608 13.2813 21.4512L8.68751 17.0762C8.628 17.0187 8.58039 16.9501 8.54741 16.8743C8.51442 16.7984 8.49669 16.7168 8.49524 16.6341C8.49379 16.5514 8.50864 16.4692 8.53895 16.3923C8.56926 16.3153 8.61443 16.2451 8.67188 16.1855C8.72933 16.126 8.79795 16.0784 8.8738 16.0454C8.94965 16.0125 9.03126 15.9947 9.11396 15.9933C9.19666 15.9918 9.27884 16.0067 9.3558 16.037C9.43276 16.0673 9.503 16.1125 9.56251 16.1699L13.7031 20.1387L22.4375 11.7949C22.559 11.6815 22.7198 11.6197 22.886 11.6226C23.0522 11.6255 23.2107 11.6929 23.3281 11.8105ZM31.625 15.998C31.625 19.0884 30.7086 22.1093 28.9917 24.6788C27.2748 27.2484 24.8345 29.251 21.9794 30.4337C19.1243 31.6163 15.9827 31.9257 12.9517 31.3228C9.92077 30.7199 7.13666 29.2318 4.95146 27.0466C2.76627 24.8614 1.27813 22.0773 0.675237 19.0463C0.072343 16.0154 0.38177 12.8737 1.56439 10.0186C2.74701 7.16352 4.7497 4.72323 7.31922 3.00633C9.88874 1.28944 12.9097 0.373047 16 0.373047C20.1415 0.381305 24.111 2.03016 27.0394 4.95863C29.9679 7.88709 31.6167 11.8566 31.625 15.998ZM30.375 15.998C30.375 13.1549 29.5319 10.3757 27.9524 8.01172C26.3728 5.64777 24.1278 3.80529 21.5011 2.71728C18.8744 1.62927 15.9841 1.3446 13.1956 1.89926C10.4071 2.45392 7.84573 3.82301 5.83535 5.83339C3.82497 7.84377 2.45588 10.4051 1.90122 13.1936C1.34656 15.9821 1.63123 18.8724 2.71924 21.4991C3.80725 24.1258 5.64973 26.3709 8.01368 27.9504C10.3776 29.53 13.1569 30.373 16 30.373C19.8112 30.3689 23.4652 28.8531 26.1601 26.1581C28.855 23.4632 30.3709 19.8093 30.375 15.998Z" fill="#55AEF0"/>
</svg>
