<svg width="25" height="20" viewBox="0 0 25 20" fill="none" xmlns="http://www.w3.org/2000/svg">
<path d="M20.9677 2.35984C19.4464 1.64109 17.8157 1.10984 16.1104 0.807761C16.0952 0.804706 16.0795 0.806675 16.0654 0.813393C16.0514 0.820112 16.0396 0.831248 16.0319 0.845261C15.8231 1.22964 15.5904 1.73068 15.4273 2.12651C13.6188 1.84342 11.7801 1.84342 9.9715 2.12651C9.78987 1.68782 9.58506 1.26008 9.35801 0.845261C9.35031 0.831076 9.33867 0.819687 9.32463 0.812615C9.3106 0.805542 9.29484 0.803122 9.27946 0.805677C7.57519 1.10776 5.94451 1.63901 4.42221 2.3588C4.40911 2.36456 4.39801 2.37437 4.39039 2.38693C1.29607 7.15255 0.447921 11.8005 0.86454 16.3901C0.8657 16.4013 0.86903 16.4122 0.874329 16.422C0.879629 16.4319 0.886785 16.4405 0.895364 16.4473C2.70144 17.8249 4.71587 18.8742 6.85431 19.5515C6.86922 19.5563 6.88517 19.5563 6.90007 19.5515C6.91497 19.5466 6.92813 19.5372 6.93784 19.5244C7.39721 18.8786 7.80687 18.1963 8.15687 17.4796C8.17775 17.438 8.15787 17.388 8.1161 17.3713C7.47378 17.1179 6.85142 16.8121 6.25474 16.4567C6.24402 16.4503 6.23498 16.4412 6.22845 16.4302C6.22191 16.4193 6.21808 16.4068 6.21729 16.3939C6.2165 16.381 6.21878 16.368 6.22393 16.3563C6.22908 16.3445 6.23693 16.3343 6.24679 16.3265C6.37207 16.2296 6.49735 16.1286 6.61667 16.0276C6.62741 16.0185 6.64035 16.0127 6.65404 16.0108C6.66774 16.009 6.68165 16.0112 6.69423 16.0171C10.5989 17.8546 14.8278 17.8546 18.6867 16.0171C18.6993 16.0108 18.7134 16.0084 18.7273 16.01C18.7411 16.0117 18.7543 16.0174 18.7653 16.0265C18.8846 16.1286 19.0089 16.2296 19.1351 16.3265C19.1451 16.3341 19.1531 16.3442 19.1584 16.3559C19.1637 16.3675 19.1662 16.3804 19.1656 16.3933C19.165 16.4062 19.1614 16.4187 19.155 16.4298C19.1486 16.4409 19.1398 16.4501 19.1292 16.4567C18.5346 16.8151 17.9161 17.1182 17.2668 17.3703C17.2568 17.3741 17.2478 17.38 17.2402 17.3878C17.2326 17.3956 17.2267 17.4049 17.2228 17.4153C17.2189 17.4256 17.2172 17.4367 17.2178 17.4478C17.2184 17.4589 17.2212 17.4698 17.226 17.4796C17.584 18.1953 17.9937 18.8765 18.4441 19.5234C18.4535 19.5367 18.4665 19.5466 18.4814 19.5518C18.4964 19.557 18.5125 19.5573 18.5276 19.5526C20.6697 18.8772 22.6874 17.8273 24.4955 16.4473C24.5043 16.4409 24.5117 16.4325 24.5172 16.4228C24.5227 16.4131 24.5262 16.4023 24.5273 16.3911C25.0245 11.0848 23.6941 6.47443 20.9985 2.38901C20.9919 2.37573 20.9809 2.36538 20.9677 2.35984ZM8.74054 13.5953C7.56525 13.5953 6.59579 12.4817 6.59579 11.1161C6.59579 9.74943 7.54636 8.63693 8.74054 8.63693C9.94366 8.63693 10.9042 9.7588 10.8853 11.1161C10.8853 12.4828 9.93471 13.5953 8.74054 13.5953ZM16.6702 13.5953C15.4939 13.5953 14.5255 12.4817 14.5255 11.1161C14.5255 9.74943 15.4751 8.63693 16.6702 8.63693C17.8734 8.63693 18.8339 9.7588 18.815 11.1161C18.815 12.4828 17.8743 13.5953 16.6702 13.5953Z" fill="#454545"/>
</svg>
