<svg width="9" height="18" viewBox="0 0 9 18" fill="none" xmlns="http://www.w3.org/2000/svg">
<path d="M7.46891 0.952185C7.29101 0.95158 7.11523 0.990843 6.9545 1.06709C6.79377 1.14334 6.65216 1.25463 6.54008 1.39278L0.788473 8.53764C0.613327 8.75071 0.517578 9.01798 0.517578 9.2938C0.517578 9.56962 0.613327 9.83689 0.788473 10.05L6.74252 17.1948C6.94464 17.438 7.23509 17.5909 7.54998 17.62C7.86486 17.649 8.17837 17.5517 8.42156 17.3496C8.66474 17.1475 8.81767 16.857 8.8467 16.5422C8.87573 16.2273 8.77849 15.9138 8.57636 15.6706L3.25345 9.28785L8.39774 2.90511C8.54336 2.73032 8.63585 2.51747 8.66429 2.29176C8.69273 2.06604 8.65591 1.8369 8.5582 1.63145C8.46048 1.426 8.30597 1.25285 8.11292 1.13247C7.91988 1.01209 7.69639 0.949526 7.46891 0.952185Z" fill="#888888"/>
</svg>
