<svg width="19" height="15" viewBox="0 0 19 15" fill="none" xmlns="http://www.w3.org/2000/svg">
<path d="M15.3536 1.55692C14.1974 1.01067 12.958 0.606919 11.662 0.377336C11.6505 0.375014 11.6386 0.37651 11.6279 0.381616C11.6172 0.386723 11.6083 0.395186 11.6023 0.405836C11.4437 0.697961 11.2668 1.07875 11.1429 1.37959C9.76838 1.16444 8.37098 1.16444 6.99647 1.37959C6.85843 1.04618 6.70277 0.721096 6.53021 0.405836C6.52436 0.395055 6.51551 0.3864 6.50485 0.381025C6.49418 0.37565 6.4822 0.37381 6.47051 0.375752C5.17527 0.605335 3.93596 1.00909 2.77901 1.55613C2.76905 1.5605 2.76061 1.56796 2.75482 1.5775C0.403142 5.19938 -0.241455 8.73179 0.0751757 12.2199C0.0760568 12.2284 0.078588 12.2367 0.0826154 12.2442C0.0866427 12.2517 0.0920819 12.2582 0.0986019 12.2634C1.47122 13.3103 3.00219 14.1079 4.6274 14.6226C4.63873 14.6262 4.65085 14.6262 4.66218 14.6226C4.6735 14.6189 4.6835 14.6117 4.69088 14.602C5.04001 14.1112 5.35135 13.5926 5.61735 13.048C5.63322 13.0163 5.6181 12.9783 5.58637 12.9656C5.0982 12.773 4.6252 12.5406 4.17173 12.2705C4.16358 12.2657 4.15671 12.2588 4.15175 12.2504C4.14678 12.2421 4.14386 12.2326 4.14326 12.2228C4.14266 12.213 4.1444 12.2032 4.14831 12.1942C4.15223 12.1853 4.15819 12.1775 4.16568 12.1716C4.2609 12.098 4.35611 12.0212 4.4468 11.9444C4.45496 11.9375 4.46479 11.9331 4.4752 11.9317C4.4856 11.9303 4.49618 11.9319 4.50574 11.9365C7.4733 13.333 10.6872 13.333 13.62 11.9365C13.6296 11.9317 13.6403 11.9298 13.6508 11.9311C13.6614 11.9323 13.6714 11.9367 13.6797 11.9436C13.7704 12.0212 13.8649 12.098 13.9608 12.1716C13.9684 12.1774 13.9745 12.1851 13.9785 12.1939C13.9825 12.2028 13.9844 12.2125 13.984 12.2223C13.9835 12.2321 13.9808 12.2417 13.9759 12.2501C13.9711 12.2585 13.9644 12.2655 13.9563 12.2705C13.5044 12.5429 13.0344 12.7733 12.5409 12.9648C12.5333 12.9677 12.5264 12.9723 12.5207 12.9782C12.5149 12.9841 12.5104 12.9912 12.5075 12.9991C12.5045 13.0069 12.5032 13.0154 12.5037 13.0238C12.5041 13.0322 12.5062 13.0405 12.5099 13.048C12.782 13.5918 13.0933 14.1096 13.4356 14.6012C13.4428 14.6113 13.4527 14.6188 13.464 14.6228C13.4754 14.6268 13.4876 14.627 13.4991 14.6234C15.1271 14.1101 16.6606 13.3122 18.0347 12.2634C18.0414 12.2585 18.047 12.2522 18.0512 12.2448C18.0554 12.2374 18.058 12.2292 18.0589 12.2207C18.4367 8.18792 17.4256 4.684 15.377 1.57909C15.372 1.569 15.3636 1.56113 15.3536 1.55692ZM6.06093 10.0958C5.16772 10.0958 4.43093 9.24954 4.43093 8.21167C4.43093 7.173 5.15336 6.3275 6.06093 6.3275C6.97531 6.3275 7.7053 7.18013 7.69094 8.21167C7.69094 9.25034 6.96851 10.0958 6.06093 10.0958ZM12.0875 10.0958C11.1935 10.0958 10.4575 9.24954 10.4575 8.21167C10.4575 7.173 11.1792 6.3275 12.0875 6.3275C13.0019 6.3275 13.7319 7.18013 13.7175 8.21167C13.7175 9.25034 13.0026 10.0958 12.0875 10.0958Z" fill="#5865F2"/>
</svg>
