<svg width="18" height="18" viewBox="0 0 18 18" fill="none" xmlns="http://www.w3.org/2000/svg">
<path d="M13.1944 6.77288C13.2572 6.84005 13.2913 6.92896 13.2897 7.02084C13.2881 7.11272 13.2508 7.20038 13.1858 7.2653L8.11477 12.1031C8.04821 12.1628 7.96232 12.1966 7.87288 12.1981C7.78577 12.1978 7.70217 12.1637 7.63963 12.1031L5.0998 9.68419C5.0669 9.65242 5.04058 9.61449 5.02234 9.57255C5.0041 9.53061 4.9943 9.48549 4.9935 9.43977C4.99269 9.39404 5.00091 9.34861 5.01766 9.30606C5.03442 9.26351 5.05939 9.22467 5.09116 9.19177C5.12292 9.15887 5.16086 9.13255 5.2028 9.11431C5.24473 9.09607 5.28985 9.08627 5.33558 9.08547C5.3813 9.08467 5.42674 9.09288 5.46929 9.10964C5.51184 9.12639 5.55068 9.15137 5.58358 9.18313L7.87288 11.3774L12.702 6.76424C12.7692 6.70152 12.8581 6.66736 12.95 6.66898C13.0419 6.67059 13.1295 6.70785 13.1944 6.77288ZM17.7817 9.08811C17.7817 10.7967 17.275 12.467 16.3258 13.8876C15.3765 15.3083 14.0273 16.4155 12.4488 17.0694C10.8702 17.7233 9.13321 17.8943 7.45743 17.561C5.78165 17.2277 4.24235 16.4049 3.03418 15.1967C1.82601 13.9886 1.00324 12.4492 0.669904 10.7735C0.336571 9.09769 0.507649 7.3607 1.16151 5.78215C1.81536 4.2036 2.92263 2.85439 4.34329 1.90513C5.76395 0.955881 7.43419 0.449219 9.1428 0.449219C11.4326 0.453785 13.6273 1.36542 15.2464 2.98453C16.8655 4.60365 17.7771 6.79833 17.7817 9.08811ZM17.0906 9.08811C17.0906 7.51618 16.6244 5.97956 15.7511 4.67256C14.8778 3.36555 13.6365 2.34687 12.1843 1.74532C10.732 1.14377 9.13398 0.986377 7.59226 1.29304C6.05055 1.59971 4.63439 2.35666 3.52287 3.46818C2.41135 4.5797 1.6544 5.99585 1.34774 7.53757C1.04107 9.07929 1.19846 10.6773 1.80001 12.1296C2.40156 13.5819 3.42024 14.8231 4.72725 15.6964C6.03425 16.5698 7.57088 17.0359 9.1428 17.0359C11.25 17.0336 13.2702 16.1955 14.7602 14.7055C16.2502 13.2155 17.0883 11.1953 17.0906 9.08811Z" fill="white"/>
</svg>
