<svg width="26" height="27" viewBox="0 0 26 27" fill="none" xmlns="http://www.w3.org/2000/svg">
<g clip-path="url(#clip0_490_1895)">
<path d="M22.0106 5.05066C20.3531 4.27441 18.5764 3.70066 16.7185 3.37441C16.702 3.37111 16.6848 3.37324 16.6695 3.3805C16.6542 3.38775 16.6414 3.39978 16.6329 3.41491C16.4054 3.83004 16.1519 4.37116 15.9743 4.79866C14.0038 4.49293 12.0005 4.49293 10.03 4.79866C9.83213 4.32488 9.60898 3.86291 9.3616 3.41491C9.35322 3.39959 9.34053 3.38729 9.32524 3.37966C9.30995 3.37202 9.29278 3.3694 9.27602 3.37216C7.41919 3.69841 5.64252 4.27216 3.98394 5.04954C3.96967 5.05575 3.95757 5.06635 3.94927 5.07991C0.577937 10.2268 -0.346146 15.2465 0.107771 20.2033C0.109034 20.2154 0.112663 20.2272 0.118436 20.2378C0.12421 20.2484 0.132007 20.2578 0.141354 20.2652C2.10911 21.7529 4.30389 22.8862 6.63377 23.6177C6.65001 23.6229 6.66738 23.6228 6.68362 23.6176C6.69985 23.6124 6.71419 23.6022 6.72477 23.5884C7.22527 22.8909 7.6716 22.154 8.05294 21.38C8.07569 21.335 8.05402 21.281 8.00852 21.263C7.30869 20.9894 6.63061 20.6591 5.98052 20.2753C5.96884 20.2684 5.959 20.2585 5.95187 20.2467C5.94475 20.2348 5.94057 20.2213 5.93972 20.2074C5.93886 20.1935 5.94134 20.1795 5.94695 20.1668C5.95256 20.1541 5.96112 20.1431 5.97185 20.1347C6.10835 20.03 6.24485 19.9209 6.37485 19.8118C6.38656 19.802 6.40065 19.7957 6.41557 19.7937C6.43049 19.7918 6.44565 19.7941 6.45935 19.8005C10.7136 21.785 15.321 21.785 19.5254 19.8005C19.5392 19.7937 19.5545 19.7911 19.5696 19.7929C19.5848 19.7946 19.5991 19.8008 19.611 19.8107C19.741 19.9209 19.8764 20.03 20.014 20.1347C20.0249 20.1429 20.0336 20.1538 20.0393 20.1664C20.0451 20.179 20.0478 20.1929 20.0472 20.2068C20.0465 20.2207 20.0426 20.2343 20.0357 20.2462C20.0287 20.2582 20.0191 20.2682 20.0075 20.2753C19.3597 20.6623 18.6859 20.9897 17.9784 21.2619C17.9676 21.266 17.9577 21.2725 17.9494 21.2808C17.9411 21.2892 17.9347 21.2994 17.9305 21.3105C17.9263 21.3217 17.9244 21.3337 17.925 21.3457C17.9256 21.3577 17.9287 21.3694 17.934 21.38C18.324 22.1529 18.7704 22.8887 19.2611 23.5873C19.2713 23.6016 19.2855 23.6123 19.3018 23.618C19.3181 23.6236 19.3357 23.6239 19.3521 23.6188C21.686 22.8894 23.8843 21.7555 25.8543 20.2652C25.8639 20.2582 25.8719 20.2492 25.8779 20.2387C25.8839 20.2282 25.8877 20.2165 25.8889 20.2044C26.4306 14.4737 24.9811 9.49441 22.0442 5.08216C22.037 5.06782 22.0251 5.05665 22.0106 5.05066ZM8.68885 17.1849C7.40835 17.1849 6.3521 15.9823 6.3521 14.5074C6.3521 13.0314 7.38777 11.8299 8.68885 11.8299C9.99969 11.8299 11.0462 13.0415 11.0256 14.5074C11.0256 15.9834 9.98994 17.1849 8.68885 17.1849V17.1849ZM17.3284 17.1849C16.0469 17.1849 14.9917 15.9823 14.9917 14.5074C14.9917 13.0314 16.0263 11.8299 17.3284 11.8299C18.6393 11.8299 19.6858 13.0415 19.6652 14.5074C19.6652 15.9834 18.6404 17.1849 17.3284 17.1849V17.1849Z" fill="#5865F2"/>
</g>
<defs>
<clipPath id="clip0_490_1895">
<rect width="26" height="27" fill="white"/>
</clipPath>
</defs>
</svg>
