<svg width="27" height="27" viewBox="0 0 27 27" fill="none" xmlns="http://www.w3.org/2000/svg">
<g clip-path="url(#clip0_490_1900)">
<path d="M24.248 4.50009C24.1457 4.48955 24.0427 4.48955 23.9405 4.50009H2.94047C2.80588 4.50216 2.67218 4.52234 2.54297 4.56009L13.3805 15.3526L24.248 4.50009Z" fill="#888888"/>
<path d="M25.3573 5.54297L14.4373 16.418C14.1562 16.6973 13.776 16.8542 13.3798 16.8542C12.9835 16.8542 12.6033 16.6973 12.3223 16.418L1.49977 5.62547C1.4665 5.74775 1.44885 5.87375 1.44727 6.00047V21.0005C1.44727 21.3983 1.6053 21.7798 1.88661 22.0611C2.16791 22.3424 2.54944 22.5005 2.94727 22.5005H23.9473C24.3451 22.5005 24.7266 22.3424 25.0079 22.0611C25.2892 21.7798 25.4473 21.3983 25.4473 21.0005V6.00047C25.4413 5.84421 25.4109 5.68985 25.3573 5.54297ZM3.97477 21.0005H2.93227V19.928L8.38477 14.5205L9.44227 15.578L3.97477 21.0005ZM23.9323 21.0005H22.8823L17.4148 15.578L18.4723 14.5205L23.9248 19.928L23.9323 21.0005Z" fill="#888888"/>
</g>
<defs>
<clipPath id="clip0_490_1900">
<rect width="27" height="27" fill="white"/>
</clipPath>
</defs>
</svg>
