<svg width="26" height="22" viewBox="0 0 26 22" fill="none" xmlns="http://www.w3.org/2000/svg">
<path d="M24.2157 0H5.86275C5.38952 0 4.93567 0.188662 4.60105 0.524483C4.26642 0.860304 4.07843 1.31578 4.07843 1.7907V4.09302H1.78431C1.31108 4.09302 0.857237 4.28169 0.522614 4.61751C0.18799 4.95333 0 5.4088 0 5.88372V20.2093C0 20.6842 0.18799 21.1397 0.522614 21.4755C0.857237 21.8113 1.31108 22 1.78431 22H20.1373C20.6105 22 21.0643 21.8113 21.399 21.4755C21.7336 21.1397 21.9216 20.6842 21.9216 20.2093V17.907H24.2157C24.6889 17.907 25.1428 17.7183 25.4774 17.3825C25.812 17.0467 26 16.5912 26 16.1163V1.7907C26 1.31578 25.812 0.860304 25.4774 0.524483C25.1428 0.188662 24.6889 0 24.2157 0ZM1.78431 5.62791H20.1373C20.2049 5.62791 20.2697 5.65486 20.3175 5.70283C20.3653 5.75081 20.3922 5.81588 20.3922 5.88372V8.18605H1.52941V5.88372C1.52941 5.81588 1.55627 5.75081 1.60407 5.70283C1.65187 5.65486 1.71671 5.62791 1.78431 5.62791ZM20.3922 20.2093C20.3922 20.2771 20.3653 20.3422 20.3175 20.3902C20.2697 20.4382 20.2049 20.4651 20.1373 20.4651H1.78431C1.71671 20.4651 1.65187 20.4382 1.60407 20.3902C1.55627 20.3422 1.52941 20.2771 1.52941 20.2093V9.72093H20.3922V20.2093ZM24.4706 16.1163C24.4706 16.1841 24.4437 16.2492 24.3959 16.2972C24.3481 16.3451 24.2833 16.3721 24.2157 16.3721H21.9216V5.88372C21.9216 5.4088 21.7336 4.95333 21.399 4.61751C21.0643 4.28169 20.6105 4.09302 20.1373 4.09302H5.60784V1.7907C5.60784 1.72285 5.6347 1.65778 5.6825 1.60981C5.73031 1.56184 5.79514 1.53488 5.86275 1.53488H24.2157C24.2833 1.53488 24.3481 1.56184 24.3959 1.60981C24.4437 1.65778 24.4706 1.72285 24.4706 1.7907V16.1163Z" fill="#454545"/>
</svg>
