<svg width="37" height="37" viewBox="0 0 37 37" fill="none" xmlns="http://www.w3.org/2000/svg">
<path d="M26.7441 13.7891C26.8718 13.9257 26.9413 14.1066 26.938 14.2936C26.9347 14.4805 26.8589 14.6589 26.7266 14.791L16.4082 24.6348C16.2728 24.7564 16.098 24.825 15.916 24.8281C15.7388 24.8275 15.5687 24.7582 15.4414 24.6348L10.2734 19.7129C10.2065 19.6483 10.1529 19.5711 10.1158 19.4857C10.0787 19.4004 10.0588 19.3086 10.0571 19.2156C10.0555 19.1225 10.0722 19.0301 10.1063 18.9435C10.1404 18.8569 10.1912 18.7779 10.2559 18.7109C10.3205 18.644 10.3977 18.5904 10.483 18.5533C10.5684 18.5162 10.6602 18.4963 10.7532 18.4946C10.8462 18.493 10.9387 18.5097 11.0253 18.5438C11.1119 18.5779 11.1909 18.6287 11.2578 18.6934L15.916 23.1582L25.7422 13.7715C25.8789 13.6439 26.0598 13.5744 26.2467 13.5776C26.4337 13.5809 26.612 13.6567 26.7441 13.7891ZM36.0781 18.5C36.0781 21.9766 35.0472 25.3752 33.1157 28.2659C31.1842 31.1566 28.4388 33.4096 25.2269 34.7401C22.0149 36.0705 18.4805 36.4186 15.0707 35.7404C11.6609 35.0621 8.52874 33.388 6.0704 30.9296C3.61205 28.4713 1.9379 25.3391 1.25964 21.9293C0.581386 18.5195 0.929491 14.9851 2.25994 11.7731C3.59038 8.56116 5.84342 5.81583 8.73413 3.88432C11.6248 1.95281 15.0234 0.921875 18.5 0.921875C23.1592 0.931165 27.6248 2.78612 30.9194 6.08065C34.2139 9.37518 36.0688 13.8408 36.0781 18.5ZM34.6719 18.5C34.6719 15.3015 33.7234 12.1748 31.9464 9.51539C30.1694 6.85594 27.6437 4.78315 24.6887 3.55914C21.7337 2.33512 18.4821 2.01487 15.345 2.63886C12.208 3.26286 9.32644 4.80308 7.06477 7.06476C4.80309 9.32644 3.26287 12.208 2.63887 15.345C2.01488 18.4821 2.33513 21.7337 3.55914 24.6887C4.78315 27.6437 6.85594 30.1694 9.5154 31.9464C12.1748 33.7234 15.3015 34.6719 18.5 34.6719C22.7876 34.6672 26.8983 32.9619 29.9301 29.9301C32.9619 26.8983 34.6672 22.7876 34.6719 18.5Z" fill="#55AEF0"/>
</svg>
