<svg width="25" height="26" viewBox="0 0 25 26" fill="none" xmlns="http://www.w3.org/2000/svg">
<path d="M12.5 0.304688C9.10781 0.304688 8.68125 0.320313 7.34844 0.379688C6.01562 0.442188 5.10781 0.651562 4.3125 0.960938C3.47827 1.27472 2.72264 1.76692 2.09844 2.40313C1.46262 3.02765 0.97048 3.78319 0.65625 4.61719C0.346875 5.41094 0.135937 6.32031 0.075 7.64844C0.015625 8.98438 0 9.40938 0 12.8063C0 16.2 0.015625 16.625 0.075 17.9578C0.1375 19.2891 0.346875 20.1969 0.65625 20.9922C0.976562 21.8141 1.40313 22.5109 2.09844 23.2062C2.79219 23.9016 3.48906 24.3297 4.31094 24.6484C5.10781 24.9578 6.01406 25.1687 7.34531 25.2297C8.67969 25.2891 9.10469 25.3047 12.5 25.3047C15.8953 25.3047 16.3188 25.2891 17.6531 25.2297C18.9828 25.1672 19.8938 24.9578 20.6891 24.6484C21.5228 24.3345 22.2778 23.8423 22.9016 23.2062C23.5969 22.5109 24.0234 21.8141 24.3438 20.9922C24.6516 20.1969 24.8625 19.2891 24.925 17.9578C24.9844 16.625 25 16.2 25 12.8047C25 9.40938 24.9844 8.98438 24.925 7.65C24.8625 6.32031 24.6516 5.41094 24.3438 4.61719C24.0296 3.78316 23.5374 3.02762 22.9016 2.40313C22.2775 1.76668 21.5219 1.27445 20.6875 0.960938C19.8906 0.651562 18.9813 0.440625 17.6516 0.379688C16.3172 0.320313 15.8938 0.304688 12.4969 0.304688H12.5016H12.5ZM11.3797 2.55781H12.5016C15.8391 2.55781 16.2344 2.56875 17.5516 2.62969C18.7703 2.68438 19.4328 2.88906 19.8734 3.05938C20.4562 3.28594 20.8734 3.55781 21.3109 3.99531C21.7484 4.43281 22.0188 4.84844 22.2453 5.43281C22.4172 5.87188 22.6203 6.53438 22.675 7.75313C22.7359 9.07031 22.7484 9.46562 22.7484 12.8016C22.7484 16.1375 22.7359 16.5344 22.675 17.8516C22.6203 19.0703 22.4156 19.7313 22.2453 20.1719C22.0449 20.7146 21.725 21.2054 21.3094 21.6078C20.8719 22.0453 20.4563 22.3156 19.8719 22.5422C19.4344 22.7141 18.7719 22.9172 17.5516 22.9734C16.2344 23.0328 15.8391 23.0469 12.5016 23.0469C9.16406 23.0469 8.76719 23.0328 7.45 22.9734C6.23125 22.9172 5.57031 22.7141 5.12969 22.5422C4.58672 22.3421 4.09551 22.0228 3.69219 21.6078C3.27617 21.2047 2.95582 20.7135 2.75469 20.1703C2.58437 19.7312 2.37969 19.0688 2.325 17.85C2.26562 16.5328 2.25312 16.1375 2.25312 12.7984C2.25312 9.46094 2.26562 9.06719 2.325 7.75C2.38125 6.53125 2.58438 5.86875 2.75625 5.42812C2.98281 4.84531 3.25469 4.42812 3.69219 3.99062C4.12969 3.55312 4.54531 3.28281 5.12969 3.05625C5.57031 2.88438 6.23125 2.68125 7.45 2.625C8.60313 2.57188 9.05 2.55625 11.3797 2.55469V2.55781ZM19.1734 4.63281C18.9765 4.63281 18.7814 4.67161 18.5994 4.74699C18.4174 4.82238 18.2521 4.93286 18.1128 5.07215C17.9735 5.21144 17.863 5.3768 17.7876 5.55879C17.7122 5.74078 17.6734 5.93583 17.6734 6.13281C17.6734 6.3298 17.7122 6.52485 17.7876 6.70684C17.863 6.88883 17.9735 7.05418 18.1128 7.19347C18.2521 7.33276 18.4174 7.44325 18.5994 7.51863C18.7814 7.59401 18.9765 7.63281 19.1734 7.63281C19.5713 7.63281 19.9528 7.47478 20.2341 7.19347C20.5154 6.91217 20.6734 6.53064 20.6734 6.13281C20.6734 5.73499 20.5154 5.35346 20.2341 5.07215C19.9528 4.79085 19.5713 4.63281 19.1734 4.63281ZM12.5016 6.38594C11.6501 6.37265 10.8045 6.52888 10.014 6.84553C9.22353 7.16218 8.50393 7.63292 7.89711 8.23035C7.29029 8.82778 6.80838 9.53995 6.47944 10.3254C6.1505 11.1109 5.98109 11.9539 5.98109 12.8055C5.98109 13.657 6.1505 14.5001 6.47944 15.2855C6.80838 16.071 7.29029 16.7832 7.89711 17.3806C8.50393 17.978 9.22353 18.4488 10.014 18.7654C10.8045 19.0821 11.6501 19.2383 12.5016 19.225C14.1868 19.1987 15.7941 18.5108 16.9765 17.3098C18.159 16.1087 18.8217 14.4909 18.8217 12.8055C18.8217 11.12 18.159 9.50221 16.9765 8.30117C15.7941 7.10014 14.1868 6.41223 12.5016 6.38594ZM12.5016 8.6375C13.6068 8.6375 14.6667 9.07654 15.4482 9.85804C16.2297 10.6395 16.6688 11.6995 16.6688 12.8047C16.6688 13.9099 16.2297 14.9698 15.4482 15.7513C14.6667 16.5328 13.6068 16.9719 12.5016 16.9719C11.3964 16.9719 10.3364 16.5328 9.55492 15.7513C8.77342 14.9698 8.33438 13.9099 8.33438 12.8047C8.33438 11.6995 8.77342 10.6395 9.55492 9.85804C10.3364 9.07654 11.3964 8.6375 12.5016 8.6375Z" fill="#454545"/>
</svg>
