<svg width="80" height="58" viewBox="0 0 80 58" fill="none" xmlns="http://www.w3.org/2000/svg">
<path d="M68.0537 8.46459L68.0642 8.48216L68.0754 8.49928C73.6125 16.9252 76.9974 27.5504 78.0236 36.7262C78.5366 41.3129 78.4548 45.491 77.7844 48.8209C77.1087 52.1772 75.8726 54.4962 74.2362 55.6281C72.6235 56.6636 70.4389 56.4126 67.5937 55.0049C64.7788 53.6122 61.6408 51.2436 58.3892 48.6362C57.6354 48.0317 56.8753 47.4143 56.1137 46.7956C53.6281 44.7763 51.1255 42.7433 48.7646 41.1001C47.2164 40.0226 45.6961 39.0886 44.245 38.4216C42.8007 37.7577 41.3652 37.3301 40.0011 37.3301C38.6379 37.3301 37.1955 37.7573 35.7403 38.4202C34.2777 39.0864 32.7408 40.0196 31.1736 41.0968C28.7402 42.7694 26.1568 44.8448 23.5986 46.9C22.8733 47.4826 22.1501 48.0636 21.4329 48.6333C18.1493 51.2418 14.9944 53.6123 12.1991 55.0063C9.35235 56.4259 7.25239 56.6499 5.77767 55.6361C4.13559 54.5071 2.89519 52.1851 2.21788 48.8209C1.54748 45.491 1.46572 41.3129 1.9787 36.7262C3.00494 27.5504 6.38979 16.9252 11.9268 8.49928L11.9381 8.48216L11.9486 8.46459C14.6691 3.9304 19.6899 1.6001 25.3011 1.6001H54.7011C60.3124 1.6001 65.3331 3.9304 68.0537 8.46459ZM30.2011 26.1001H31.2011V25.1001V20.2001V19.2001H30.2011H26.3011V15.3001V14.3001H25.3011H20.4011H19.4011V15.3001V19.2001H15.5011H14.5011V20.2001V25.1001V26.1001H15.5011H19.4011V30.0001V31.0001H20.4011H25.3011H26.3011V30.0001V26.1001H30.2011ZM52.2511 32.9601C55.2534 32.9601 57.6611 30.5524 57.6611 27.5501C57.6611 24.5478 55.2534 22.1401 52.2511 22.1401C49.2489 22.1401 46.8411 24.5478 46.8411 27.5501C46.8411 30.5524 49.2489 32.9601 52.2511 32.9601ZM61.5611 23.1601C64.5634 23.1601 66.9712 20.7524 66.9712 17.7501C66.9712 14.7478 64.5634 12.3401 61.5611 12.3401C58.5589 12.3401 56.1511 14.7478 56.1511 17.7501C56.1511 20.7524 58.5589 23.1601 61.5611 23.1601Z" stroke="#55AEF0" stroke-width="2"/>
</svg>
