<svg width="70" height="69" viewBox="0 0 70 69" fill="none" xmlns="http://www.w3.org/2000/svg">
<path d="M35 62.556C42.6818 62.556 50.0548 59.5941 55.4955 54.313C60.9372 49.0309 64 41.8603 64 34.377C64 26.8937 60.9372 19.7232 55.4955 14.441C50.0548 9.15989 42.6818 6.19806 35 6.19806C27.3182 6.19806 19.9452 9.15989 14.5045 14.441C9.0628 19.7232 6 26.8937 6 34.377C6 41.8603 9.0628 49.0309 14.5045 54.313C19.9452 59.5941 27.3182 62.556 35 62.556ZM69 34.377C69 43.1124 65.4253 51.4963 59.0522 57.6825C52.6781 63.8697 44.0268 67.3507 35 67.3507C25.9732 67.3507 17.3219 63.8697 10.9478 57.6825C4.57468 51.4963 1 43.1124 1 34.377C1 25.6416 4.57468 17.2578 10.9478 11.0715C17.3219 4.88434 25.9732 1.40332 35 1.40332C44.0268 1.40332 52.6781 4.88434 59.0522 11.0715C65.4253 17.2578 69 25.6416 69 34.377Z" stroke="#55AEF0" stroke-width="2"/>
<path d="M34.6085 20.4478V18.3901H35.2335V20.373V21.3146L36.1734 21.3712C40.7841 21.6492 43.5824 23.8871 44.3473 26.6638H41.6784C40.9143 24.6505 38.9527 23.3447 36.3439 23.0551L35.2335 22.9318V24.049V32.2026V32.9991L36.0098 33.1773L38.0818 33.6529L38.0838 33.6534C40.4581 34.1933 42.1679 34.9593 43.277 35.9908C44.3463 36.9852 44.9355 38.2986 44.9355 40.1525C44.9355 42.173 44.1621 43.8391 42.7307 45.0659C41.2785 46.3105 39.0797 47.1588 36.166 47.356L35.2335 47.4191V48.3537V50.3638H34.6085V48.3741V47.4364L33.6727 47.3762C30.8758 47.1962 28.7909 46.3673 27.3848 45.1914C26.282 44.2693 25.5628 43.1072 25.2387 41.7912H27.9851C28.7667 43.8741 30.8358 45.2208 33.4635 45.606L34.6085 45.7739V44.6166V35.9737V35.1844L33.8408 35.001L32.1048 34.5866L32.1048 34.5865L32.0923 34.5837C30.009 34.1143 28.4405 33.325 27.4033 32.2898C26.3871 31.2756 25.8235 29.9708 25.8235 28.3161C25.8235 24.6936 28.7818 21.9101 33.703 21.4433L34.6085 21.3574V20.4478ZM33.3693 32.567L33.4771 32.5911H33.5875H33.6085H34.6085V31.5911V24.1169V22.9273L33.4366 23.1318C30.6378 23.6202 28.6045 25.4048 28.6045 28.0443C28.6045 29.2345 29.088 30.2462 29.9669 31.0195C30.8136 31.7644 31.9896 32.2585 33.3693 32.567ZM36.8309 35.6843L36.8309 35.6843L36.8224 35.6825L36.4444 35.6009L35.2335 35.3397V36.5784V44.6981V45.7947L36.3255 45.6939C38.042 45.5354 39.5008 45.0195 40.5492 44.1283C41.6221 43.2162 42.1965 41.9658 42.1965 40.5262C42.1965 39.2329 41.7136 38.1563 40.7217 37.3322C39.7866 36.5551 38.4559 36.0497 36.8309 35.6843Z" stroke="#55AEF0" stroke-width="2"/>
</svg>
