<svg width="70" height="78" viewBox="0 0 70 78" fill="none" xmlns="http://www.w3.org/2000/svg">
<path d="M19.6667 18.8332H18.6667V19.8332V27.4998V28.4998H19.6667H50.3333H51.3333V27.4998V19.8332V18.8332H50.3333H19.6667ZM19.6667 34.1665H18.6667V35.1665V42.8332V43.8332H19.6667H50.3333H51.3333V42.8332V35.1665V34.1665H50.3333H19.6667ZM19.6667 49.4998H18.6667V50.4998V58.1665V59.1665H19.6667H38.8333H39.8333V58.1665V50.4998V49.4998H38.8333H19.6667ZM65.6667 76.3332H4.33333C3.58189 76.3332 2.86122 76.0347 2.32986 75.5033C1.79851 74.972 1.5 74.2513 1.5 73.4998V4.49984C1.5 3.74839 1.79851 3.02772 2.32986 2.49637C2.86122 1.96501 3.58189 1.6665 4.33333 1.6665H65.6667C66.4181 1.6665 67.1388 1.96502 67.6701 2.49637C68.2015 3.02772 68.5 3.74839 68.5 4.49984V73.4998C68.5 74.2513 68.2015 74.972 67.6701 75.5033C67.1388 76.0347 66.4181 76.3332 65.6667 76.3332Z" stroke="#55AEF0" stroke-width="2"/>
</svg>
